<svg width="134" height="115" viewBox="0 0 134 115" fill="none" xmlns="http://www.w3.org/2000/svg">
<g clip-path="url(#clip0_230_18)">
<path d="M96.72 93.44H66.44C65.34 93.44 64.44 92.54 64.44 91.44C64.44 90.34 65.34 89.44 66.44 89.44H92.81C92.69 88.06 92.34 86.13 91.4 84.39C89.74 81.31 84.82 79.15 79.44 79.15H66.44C60.86 79.15 56.57 77.28 52.42 75.47C48.35 73.69 44.5 72.01 39.43 72.01C29.44 72.01 23.1 77.46 23.03 77.52C22.2 78.25 20.93 78.16 20.21 77.33C19.48 76.5 19.57 75.24 20.4 74.51C20.7 74.25 27.95 68.01 39.43 68.01C45.33 68.01 49.75 69.94 54.02 71.8C57.97 73.52 61.69 75.15 66.44 75.15H79.44C86.44 75.15 92.52 78.03 94.92 82.49C97.17 86.67 96.87 91.38 96.85 91.58L96.72 93.44Z" fill="#B3B3B3"/>
<path d="M73.5502 114.72C70.6602 114.72 67.6202 114.27 64.3402 113.37C59.6802 112.1 53.7602 110.34 48.5402 108.79C43.1702 107.19 38.5302 105.81 36.7002 105.39C33.5002 104.65 29.5302 103.73 22.9302 108.75C22.0502 109.42 20.8002 109.25 20.1302 108.37C19.4602 107.49 19.6302 106.24 20.5102 105.57C27.9802 99.9001 33.0502 100.45 37.6002 101.5C39.5502 101.95 44.2402 103.35 49.6802 104.96C54.8802 106.51 60.7702 108.26 65.4002 109.52C74.9702 112.13 80.7702 109.92 84.7602 107.7C89.1002 105.29 118.82 85.8601 127.09 80.4501C125.07 78.9101 121.38 77.0801 116.9 79.2401C108.62 83.2401 95.7602 89.5201 95.7602 89.5201L94.0002 85.9301C94.0002 85.9301 106.86 79.6401 115.15 75.6401C122.82 71.9301 129.43 76.5201 131.85 79.4601L133.27 81.1801L131.41 82.4001C129.8 83.4601 91.8602 108.33 86.7102 111.19C82.4502 113.56 78.2002 114.72 73.5602 114.72H73.5502Z" fill="#B3B3B3"/>
<path d="M24.92 112.3H0V64.29H24.92V112.3ZM4 108.3H20.92V68.29H4V108.3Z" fill="#B3B3B3"/>
<path d="M66.4402 50.58C66.0802 50.58 65.7302 50.49 65.4002 50.29C64.4602 49.71 64.1602 48.48 64.7302 47.54L93.1502 0.959968C93.7302 0.0199682 94.9602 -0.280032 95.9002 0.289968C96.8402 0.869968 97.1402 2.09997 96.5702 3.03997L68.1502 49.62C67.7702 50.24 67.1102 50.58 66.4402 50.58Z" fill="#B3B3B3"/>
<path d="M67.15 25.15C61.16 25.15 56.29 19.77 56.29 13.15C56.29 6.53002 61.16 1.15002 67.15 1.15002C73.14 1.15002 78.01 6.53002 78.01 13.15C78.01 19.77 73.14 25.15 67.15 25.15ZM67.15 5.15002C63.37 5.15002 60.29 8.74002 60.29 13.15C60.29 17.56 63.37 21.15 67.15 21.15C70.93 21.15 74.01 17.56 74.01 13.15C74.01 8.74002 70.93 5.15002 67.15 5.15002Z" fill="#B3B3B3"/>
<path d="M93.5001 49.58C87.5101 49.58 82.6401 44.2 82.6401 37.58C82.6401 30.96 87.5101 25.58 93.5001 25.58C99.4901 25.58 104.36 30.96 104.36 37.58C104.36 44.2 99.4901 49.58 93.5001 49.58ZM93.5001 29.58C89.7201 29.58 86.6401 33.17 86.6401 37.58C86.6401 41.99 89.7201 45.58 93.5001 45.58C97.2801 45.58 100.36 41.99 100.36 37.58C100.36 33.17 97.2801 29.58 93.5001 29.58Z" fill="#B3B3B3"/>
</g>
<defs>
<clipPath id="clip0_230_18">
<rect width="133.27" height="114.72" fill="white"/>
</clipPath>
</defs>
</svg>
