<svg width="102" height="116" viewBox="0 0 102 116" fill="none" xmlns="http://www.w3.org/2000/svg">
<g clip-path="url(#clip0_229_7)">
<path d="M83.57 80.35H24.31L13.97 38.33C13.97 38.33 13.95 38.27 13.95 38.24L10.17 22.86H2C0.9 22.86 0 21.96 0 20.86C0 19.76 0.9 18.86 2 18.86H13.3L17.47 35.8H101.86L92.24 73.61C91.23 77.58 87.67 80.35 83.58 80.35H83.57ZM27.44 76.35H83.57C85.83 76.35 87.8 74.82 88.36 72.63L96.71 39.81H18.45L27.45 76.36L27.44 76.35Z" fill="#B3B3B3"/>
<path d="M92.5099 94.5H24.9999C19.9999 94.5 15.9199 90.43 15.9199 85.42C15.9199 80.41 19.9899 76.34 24.9999 76.34H25.8799C26.9799 76.34 27.8799 77.24 27.8799 78.34C27.8799 79.44 26.9799 80.34 25.8799 80.34H24.9999C22.1999 80.34 19.9199 82.62 19.9199 85.42C19.9199 88.22 22.1999 90.5 24.9999 90.5H92.5099C93.6099 90.5 94.5099 91.4 94.5099 92.5C94.5099 93.6 93.6099 94.5 92.5099 94.5Z" fill="#B3B3B3"/>
<path d="M28.8301 115.43C23.1801 115.43 18.5801 110.83 18.5801 105.18C18.5801 99.5301 23.1801 94.9301 28.8301 94.9301C34.4801 94.9301 39.0801 99.5301 39.0801 105.18C39.0801 110.83 34.4801 115.43 28.8301 115.43ZM28.8301 98.9201C25.3801 98.9201 22.5801 101.73 22.5801 105.17C22.5801 108.61 25.3901 111.42 28.8301 111.42C32.2701 111.42 35.0801 108.61 35.0801 105.17C35.0801 101.73 32.2701 98.9201 28.8301 98.9201Z" fill="#B3B3B3"/>
<path d="M84.25 115.43C78.6 115.43 74 110.83 74 105.18C74 99.5301 78.6 94.9301 84.25 94.9301C89.9 94.9301 94.5 99.5301 94.5 105.18C94.5 110.83 89.9 115.43 84.25 115.43ZM84.25 98.9201C80.8 98.9201 78 101.73 78 105.17C78 108.61 80.81 111.42 84.25 111.42C87.69 111.42 90.5 108.61 90.5 105.17C90.5 101.73 87.69 98.9201 84.25 98.9201Z" fill="#B3B3B3"/>
<path d="M56.54 70.32C55.44 70.32 54.54 69.42 54.54 68.32V49.6C54.54 48.5 55.44 47.6 56.54 47.6C57.64 47.6 58.54 48.5 58.54 49.6V68.32C58.54 69.42 57.64 70.32 56.54 70.32Z" fill="#B3B3B3"/>
<path d="M72.1702 70.3201C72.0302 70.3201 71.8902 70.3101 71.7502 70.2801C70.6702 70.0501 69.9802 68.9901 70.2102 67.9101L74.2102 49.1901C74.4402 48.1101 75.5102 47.4201 76.5802 47.6501C77.6602 47.8801 78.3502 48.9401 78.1202 50.0201L74.1202 68.7401C73.9202 69.6801 73.0902 70.3201 72.1702 70.3201Z" fill="#B3B3B3"/>
<path d="M41.21 70.3201C40.29 70.3201 39.46 69.6801 39.26 68.7401L35.26 50.0201C35.03 48.9401 35.72 47.8801 36.8 47.6501C37.88 47.4201 38.94 48.1101 39.17 49.1901L43.17 67.9101C43.4 68.9901 42.71 70.0501 41.63 70.2801C41.49 70.3101 41.35 70.3201 41.21 70.3201Z" fill="#B3B3B3"/>
<path d="M58.0101 24.63H50.7301C49.6301 24.63 48.7301 23.73 48.7301 22.63C48.7301 21.53 49.6301 20.63 50.7301 20.63H58.0101C59.1801 20.63 60.1401 19.68 60.1401 18.5C60.1401 17.32 59.1901 16.37 58.0101 16.37H54.7701C51.3901 16.37 48.6401 13.62 48.6401 10.24C48.6401 6.85998 51.3901 4.10999 54.7701 4.10999H60.6701C61.7701 4.10999 62.6701 5.00999 62.6701 6.10999C62.6701 7.20999 61.7701 8.10998 60.6701 8.10998H54.7701C53.6001 8.10998 52.6401 9.05999 52.6401 10.24C52.6401 11.42 53.6001 12.37 54.7701 12.37H58.0101C61.3901 12.37 64.1401 15.12 64.1401 18.5C64.1401 21.88 61.3901 24.63 58.0101 24.63Z" fill="#B3B3B3"/>
<path d="M56.3901 28.74C55.2901 28.74 54.3901 27.84 54.3901 26.74V22.62C54.3901 21.52 55.2901 20.62 56.3901 20.62C57.4901 20.62 58.3901 21.52 58.3901 22.62V26.74C58.3901 27.84 57.4901 28.74 56.3901 28.74Z" fill="#B3B3B3"/>
<path d="M56.3901 8.12C55.2901 8.12 54.3901 7.22 54.3901 6.12V2C54.3901 0.9 55.2901 0 56.3901 0C57.4901 0 58.3901 0.9 58.3901 2V6.12C58.3901 7.22 57.4901 8.12 56.3901 8.12Z" fill="#B3B3B3"/>
</g>
<defs>
<clipPath id="clip0_229_7">
<rect width="101.86" height="115.43" fill="white"/>
</clipPath>
</defs>
</svg>
