<svg width="24" height="24" viewBox="0 0 24 24" fill="none" xmlns="http://www.w3.org/2000/svg">
<path d="M23.9996 10.4405C23.9996 10.4349 23.9991 10.4298 23.9987 10.4242C23.9987 10.4161 23.9979 10.4075 23.9974 10.3993C23.9974 10.3972 23.9966 10.3951 23.9966 10.3929C23.9966 10.3925 23.9966 10.3921 23.9966 10.3916C23.9961 10.3869 23.9953 10.3818 23.9944 10.3771C23.9931 10.3681 23.9919 10.3595 23.9901 10.3505C23.9897 10.3479 23.9889 10.3453 23.9884 10.3428C23.9876 10.3381 23.9863 10.3338 23.985 10.3291C23.9829 10.3205 23.9807 10.3119 23.9781 10.3033C23.9773 10.3008 23.9764 10.2982 23.9756 10.2956C23.9739 10.2905 23.9717 10.2853 23.97 10.2802C23.9674 10.2725 23.9649 10.2648 23.9614 10.2571C23.9606 10.2549 23.9597 10.2528 23.9584 10.2506C23.9554 10.2438 23.952 10.2373 23.949 10.2309C23.946 10.2249 23.9434 10.2189 23.9404 10.2129C23.9396 10.2112 23.9387 10.2095 23.9379 10.2078C23.9331 10.1996 23.928 10.1915 23.9233 10.1833C23.9207 10.1791 23.9186 10.1752 23.916 10.1709C23.916 10.1709 23.916 10.1705 23.9156 10.1701C23.9147 10.1692 23.9143 10.1679 23.9134 10.1671C23.9079 10.1589 23.9019 10.1512 23.8954 10.1431C23.8954 10.1426 23.8946 10.1422 23.8941 10.1414C23.8903 10.1366 23.8869 10.1315 23.8826 10.1268C23.8774 10.1208 23.8723 10.1152 23.8671 10.1096C23.8633 10.1054 23.8594 10.1006 23.8551 10.0968C23.8551 10.0964 23.8543 10.0959 23.8539 10.0955C23.8517 10.0934 23.8496 10.0912 23.8474 10.0891C23.8436 10.0856 23.8397 10.0822 23.8359 10.0788C23.8311 10.0745 23.8269 10.0706 23.8221 10.0668C23.8209 10.0655 23.8196 10.0642 23.8179 10.0629C23.8149 10.0604 23.8119 10.0582 23.8089 10.0556C23.808 10.0552 23.8076 10.0544 23.8067 10.0535L20.4507 7.45388V0.500125C20.4507 0.224135 20.227 0 19.9506 0H4.04986C3.77386 0 3.54973 0.223706 3.54973 0.500125V7.45516L0.193707 10.0548C0.193707 10.0548 0.191993 10.0561 0.191565 10.0569C0.188993 10.0591 0.185993 10.0612 0.183422 10.0634C0.178708 10.0672 0.174422 10.0715 0.169708 10.0754C0.168423 10.0766 0.166708 10.0779 0.165423 10.0792C0.161137 10.0831 0.156852 10.0865 0.152995 10.0904C0.15128 10.0921 0.149138 10.0938 0.147423 10.0955C0.142709 10.1002 0.137995 10.1058 0.133281 10.1105C0.12771 10.1165 0.122567 10.1221 0.117424 10.1281C0.116567 10.1289 0.11571 10.1302 0.114853 10.1311C0.110996 10.1358 0.107139 10.1414 0.103282 10.1465C0.0981393 10.1534 0.0925681 10.1602 0.0874254 10.1675C0.0831399 10.1739 0.0792829 10.1804 0.0749973 10.1872C0.0707118 10.1945 0.0659976 10.2013 0.0621406 10.2086C0.060855 10.2108 0.0599979 10.2129 0.0587122 10.2151C0.056998 10.2181 0.0557123 10.2215 0.0539981 10.2249C0.0527124 10.2275 0.0514267 10.2301 0.0501411 10.2326C0.0471412 10.2391 0.0437127 10.2451 0.0411414 10.2515C0.0398557 10.2541 0.0389986 10.2566 0.0377129 10.2596C0.0355702 10.2652 0.0338559 10.2708 0.0317132 10.2763C0.0312846 10.2776 0.030856 10.2789 0.0304275 10.2802C0.0282847 10.2858 0.0261419 10.2909 0.0244277 10.2965C0.0235706 10.2995 0.0222849 10.3025 0.0214278 10.3055C0.019285 10.3128 0.0175708 10.3196 0.0158566 10.3269C0.0145709 10.3325 0.0128567 10.3381 0.011571 10.3436C0.0107139 10.3466 0.0102853 10.3501 0.00942823 10.3531C0.00814257 10.3603 0.00728545 10.3676 0.00599979 10.3749C0.00514267 10.3809 0.003857 10.3869 0.00342845 10.3929C0.00342845 10.3959 0.00257134 10.3989 0.00214278 10.4019C0.00128567 10.4083 0.00128567 10.4152 0.000857112 10.4216C0.000857112 10.4289 0 10.4362 0 10.4431C0 10.4456 0 10.4482 0 10.4508V23.5007C0 23.7767 0.223706 24.0009 0.500125 24.0009H23.4999C23.7759 24.0009 24 23.7771 24 23.5007V10.4542C24 10.4499 24 10.4452 24 10.4409L23.9996 10.4405ZM22.6453 10.4203L20.4498 11.8903V8.7194L22.6453 10.4199V10.4203ZM19.45 0.999821V12.5597L12 17.5477L4.54998 12.5593V0.999821H19.45ZM3.55016 11.8903L1.35467 10.4203L3.55016 8.71983V11.8903ZM1.00025 22.9997V11.3863L3.66973 13.1738C3.72929 13.2437 3.80729 13.2968 3.89643 13.3255L11.7223 18.5655C11.8063 18.622 11.9036 18.6499 12.0004 18.6499C12.0973 18.6499 12.1946 18.6216 12.2786 18.5655L20.1044 13.3255C20.1936 13.2968 20.2711 13.2437 20.3307 13.1742L23.0002 11.3867V23.0002H0.999821L1.00025 22.9997Z" fill="black"/>
<path d="M11.6494 12.0496C12.5995 12.0496 13.4493 11.8996 14.2495 11.4497L13.9495 10.8C13.3495 11.1 12.5995 11.3001 11.7497 11.3001C9.59962 11.3001 7.99982 9.80015 7.99982 7.35009C7.99982 4.40034 10.0496 2.50013 12.4495 2.50013C14.6994 2.50013 15.9992 4.00007 15.9992 6.1C15.9992 7.80008 15.1494 8.7999 14.3995 8.7999C13.8993 8.7999 13.7493 8.25006 13.9495 7.14996L14.4496 4.5002C14.0995 4.3502 13.5496 4.20021 12.8995 4.20021C10.8493 4.20021 9.39949 5.90029 9.39949 7.70022C9.39949 8.85047 10.1495 9.5503 10.9993 9.5503C11.8491 9.5503 12.5489 9.10032 13.0491 8.25049H13.0992C13.0495 9.15046 13.5993 9.5503 14.1993 9.5503C15.5493 9.5503 16.7994 8.25006 16.7994 6.05028C16.7994 3.60023 15.0993 1.80029 12.5494 1.80029C9.29963 1.80029 7.19971 4.39991 7.19971 7.44995C7.19971 10.2998 9.24949 12.0496 11.6494 12.0496ZM13.0996 6.74969C12.9496 7.64966 12.1495 8.74976 11.2997 8.74976C10.6496 8.74976 10.3496 8.29977 10.3496 7.64966C10.3496 6.19985 11.3996 4.99989 12.6994 4.99989C13.0495 4.99989 13.2993 5.04961 13.4493 5.09975L13.0996 6.74969Z" fill="black"/>
</svg>
