<svg width="24" height="24" viewBox="0 0 24 24" fill="none" xmlns="http://www.w3.org/2000/svg">
<path d="M22.3859 6.80732C22.1825 5.68479 21.2135 4.86732 20.089 4.61211C18.4062 4.25521 15.2918 4 11.9222 4C8.55465 4 5.39043 4.25521 3.70564 4.61211C2.58311 4.86732 1.61211 5.63295 1.40874 6.80732C1.20337 8.08338 1 9.86986 1 12.1668C1 14.4637 1.20337 16.2501 1.45858 17.5262C1.66395 18.6487 2.63295 19.4662 3.75548 19.7214C5.54196 20.0783 8.6045 20.3335 11.9741 20.3335C15.3437 20.3335 18.4062 20.0783 20.1927 19.7214C21.3152 19.4662 22.2842 18.7006 22.4896 17.5262C22.6929 16.2501 22.9482 14.4118 23 12.1668C22.8963 9.86986 22.6411 8.08338 22.3859 6.80732ZM9.16676 15.7397V8.5938L15.3935 12.1668L9.16676 15.7397Z" fill="black"/>
</svg>
