<svg width="98" height="75" viewBox="0 0 98 75" fill="none" xmlns="http://www.w3.org/2000/svg">
<path d="M49.5199 0C31.1638 0 15.858 13.2765 12.6619 30.7341C2.34615 39.793 -1.96939 48.2299 0.838351 53.9141C2.7983 57.8817 7.91059 59.8774 15.1852 59.8774C16.487 59.8774 17.8781 59.7953 19.313 59.6676C26.1409 68.9583 37.1348 75 49.5199 75C70.186 75 86.9997 58.1773 86.9997 37.5C87.0015 16.8227 70.1878 0 49.5199 0ZM75.6629 13.5903C73.0266 14.714 70 15.6553 66.6709 16.3776C64.4538 10.4636 61.3307 5.81371 57.6697 2.99898C64.7054 4.66265 70.9372 8.42231 75.6648 13.5884L75.6629 13.5903ZM50.468 2.09418C56.191 2.6615 61.3507 8.33293 64.6088 16.7954C60.2203 17.6071 55.4162 18.0577 50.468 18.1106V2.09418ZM41.4522 2.98074C37.7766 5.80824 34.637 10.4891 32.4073 16.3904C29.0635 15.668 26.0278 14.7176 23.3787 13.5884C28.1209 8.40225 34.3836 4.63346 41.4504 2.98074H41.4522ZM48.426 2.10877V18.107C43.5033 18.0486 38.732 17.5962 34.3763 16.7881C37.5706 8.39313 42.6501 2.74724 48.426 2.11059V2.10877ZM14.1277 35.7123C14.5143 27.9668 17.4004 20.8743 21.9858 15.2101C24.8154 16.4743 28.1008 17.5287 31.7235 18.3259C30.0298 23.461 28.9924 29.3823 28.8265 35.7123H14.1277ZM31.2914 55.3516C27.3442 56.4041 23.634 57.1211 20.272 57.4895C16.4159 51.8601 14.1423 45.0668 14.0894 37.7554H28.8064C28.8319 44.1182 29.729 50.1088 31.2933 55.3516H31.2914ZM2.67068 53.0057C0.528405 48.6659 4.17483 41.4731 12.2188 33.899C12.1058 35.0848 12.042 36.2833 12.042 37.4982C12.042 44.9281 14.2225 51.8564 17.9638 57.6902C10.0911 58.2046 4.46654 56.6449 2.67068 53.0057ZM21.6849 59.4013C24.8482 58.9872 28.2722 58.2904 31.9186 57.3035C34.1466 63.7976 37.4411 68.9656 41.3775 72.001C33.4611 70.1312 26.5657 65.5999 21.6831 59.4031L21.6849 59.4013ZM36.4584 53.8229C35.39 54.1695 34.3344 54.4942 33.2915 54.797C31.7618 49.7148 30.8721 43.8938 30.8466 37.7554H39.4686L37.5287 35.7123H30.8666C31.0289 29.4973 32.0426 23.7036 33.6853 18.7308C38.2561 19.601 43.2627 20.088 48.426 20.1501V27.0547L50.468 28.1236V20.1519C55.6587 20.0972 60.7035 19.6101 65.3107 18.7363C66.587 22.558 67.4895 26.8668 67.9161 31.4765C68.5852 31.3944 69.2708 31.3452 69.9563 31.3397C69.5297 26.6241 68.6308 22.2315 67.3491 18.3149C70.9591 17.5178 74.2408 16.4707 77.0595 15.2138C81.6449 20.8743 84.5292 27.9667 84.9157 35.7105H77.4114C77.5518 36.3544 77.5755 37.033 77.4606 37.7536H84.9522C84.8902 46.3802 81.7324 54.2808 76.5399 60.4028C73.8981 59.2718 70.8424 58.3013 67.4822 57.5497L67.2379 59.5855C70.1259 60.2404 72.7695 61.0613 75.0941 62.0044C68.8423 68.5296 60.1328 72.6723 50.468 72.9277V64.6513C50.1161 65.1074 49.6694 65.4941 49.1425 65.7714L48.426 66.149V72.8803C42.393 72.1907 37.0801 65.8644 33.9151 56.7343C35.0181 56.4114 36.1375 56.0648 37.2734 55.6909" fill="black"/>
<path d="M49.5199 0C31.1638 0 15.858 13.2765 12.6619 30.7341C2.34615 39.793 -1.96939 48.2299 0.838351 53.9141C2.7983 57.8817 7.91059 59.8774 15.1852 59.8774C16.487 59.8774 17.8781 59.7953 19.313 59.6676C26.1409 68.9583 37.1348 75 49.5199 75C70.186 75 86.9997 58.1773 86.9997 37.5C87.0015 16.8227 70.1878 0 49.5199 0ZM75.6629 13.5903C73.0266 14.714 70 15.6553 66.6709 16.3776C64.4538 10.4636 61.3307 5.81371 57.6697 2.99898C64.7054 4.66265 70.9372 8.42231 75.6648 13.5884L75.6629 13.5903ZM50.468 2.09418C56.191 2.6615 61.3507 8.33293 64.6088 16.7954C60.2203 17.6071 55.4162 18.0577 50.468 18.1106V2.09418ZM41.4522 2.98074C37.7766 5.80824 34.637 10.4891 32.4073 16.3904C29.0635 15.668 26.0278 14.7176 23.3787 13.5884C28.1209 8.40225 34.3836 4.63346 41.4504 2.98074H41.4522ZM48.426 2.10877V18.107C43.5033 18.0486 38.732 17.5962 34.3763 16.7881C37.5706 8.39313 42.6501 2.74724 48.426 2.11059V2.10877ZM14.1277 35.7123C14.5143 27.9668 17.4004 20.8743 21.9858 15.2101C24.8154 16.4743 28.1008 17.5287 31.7235 18.3259C30.0298 23.461 28.9924 29.3823 28.8265 35.7123H14.1277ZM31.2914 55.3516C27.3442 56.4041 23.634 57.1211 20.272 57.4895C16.4159 51.8601 14.1423 45.0668 14.0894 37.7554H28.8064C28.8319 44.1182 29.729 50.1088 31.2933 55.3516H31.2914ZM2.67068 53.0057C0.528405 48.6659 4.17483 41.4731 12.2188 33.899C12.1058 35.0848 12.042 36.2833 12.042 37.4982C12.042 44.9281 14.2225 51.8564 17.9638 57.6902C10.0911 58.2046 4.46654 56.6449 2.67068 53.0057ZM21.6849 59.4013C24.8482 58.9872 28.2722 58.2904 31.9186 57.3035C34.1466 63.7976 37.4411 68.9656 41.3775 72.001C33.4611 70.1312 26.5657 65.5999 21.6831 59.4031L21.6849 59.4013ZM36.4584 53.8229C35.39 54.1695 34.3344 54.4942 33.2915 54.797C31.7618 49.7148 30.8721 43.8938 30.8466 37.7554H39.4686L37.5287 35.7123H30.8666C31.0289 29.4973 32.0426 23.7036 33.6853 18.7308C38.2561 19.601 43.2627 20.088 48.426 20.1501V27.0547L50.468 28.1236V20.1519C55.6587 20.0972 60.7035 19.6101 65.3107 18.7363C66.587 22.558 67.4895 26.8668 67.9161 31.4765C68.5852 31.3944 69.2708 31.3452 69.9563 31.3397C69.5297 26.6241 68.6308 22.2315 67.3491 18.3149C70.9591 17.5178 74.2408 16.4707 77.0595 15.2138C81.6449 20.8743 84.5292 27.9667 84.9157 35.7105H77.4114C77.5518 36.3544 77.5755 37.033 77.4606 37.7536H84.9522C84.8902 46.3802 81.7324 54.2808 76.5399 60.4028C73.8981 59.2718 70.8424 58.3013 67.4822 57.5497L67.2379 59.5855C70.1259 60.2404 72.7695 61.0613 75.0941 62.0044C68.8423 68.5296 60.1328 72.6723 50.468 72.9277V64.6513C50.1161 65.1074 49.6694 65.4941 49.1425 65.7714L48.426 66.149V72.8803C42.393 72.1907 37.0801 65.8644 33.9151 56.7343" fill="black"/>
<path d="M36.4608 53.9762C36.6322 54.31 37.7243 56.707 37.7243 56.707C37.9029 57.0481 38.2566 57.2524 38.6286 57.2524C38.7106 57.2524 38.7945 57.2433 38.8784 57.2214L41.3652 56.5921L45.0025 63.493C45.1867 63.8396 45.5404 64.0366 45.9068 64.0366C46.0673 64.0366 46.2295 63.9983 46.3827 63.9199L47.7173 63.2176C48.0509 63.0424 48.2606 62.6958 48.2624 62.3182L48.2934 54.8263C49.1357 54.5818 49.896 54.2772 50.6946 53.8576L53.7394 52.2541L57.1998 68.5807C57.2654 68.8945 57.4769 69.1571 57.765 69.294C57.9036 69.3578 58.0512 69.3906 58.1989 69.3906C58.3612 69.3906 58.5253 69.3523 58.6748 69.2739L62.8226 67.0885C63.1198 66.9316 63.3203 66.6416 63.3604 66.3059L65.8181 45.8932L69.4299 43.9905C70.6642 43.3411 72.0462 41.9821 73.1237 40.3567C73.9898 39.0506 74.8923 37.2447 74.2632 36.0535C73.6105 34.8148 71.6305 34.554 70.0826 34.554C68.5347 34.554 66.3323 34.8367 64.8172 35.6357L61.3768 37.4453L43.1666 27.9121C42.8694 27.757 42.5138 27.757 42.2167 27.9121L38.0689 30.0956C37.7863 30.2452 37.5893 30.517 37.5365 30.8326C37.4836 31.1482 37.5839 31.4711 37.8045 31.7027L49.2944 43.8045L46.2496 45.4079C45.4383 45.8348 44.7491 46.2981 44.0581 46.8673L37.9431 42.7008C37.6313 42.4892 37.2265 42.4655 36.8947 42.6388L35.5583 43.3411C35.0587 43.6038 34.8655 44.2204 35.128 44.722L38.7143 51.5536L36.7871 53.2483C36.572 53.438 36.4681 53.7007 36.4553 53.9725L36.4608 53.9762Z" fill="#DB0011"/>
</svg>
