<svg width="48" height="35" viewBox="0 0 48 35" fill="none" xmlns="http://www.w3.org/2000/svg">
<g clip-path="url(#clip0_361_10)">
<path d="M48 8.53537V5.13958C48 2.29446 45.7055 0 42.8604 0H5.13958C2.29446 0 0 2.29446 0 5.13958V8.53537H48Z" fill="white"/>
<path d="M0 11.9541V29.1396C0 31.9847 2.3174 34.2792 5.13958 34.2792H42.8604C45.7055 34.2792 48 31.9618 48 29.1396V11.9541H0ZM8.58126 17.1396H13.7208C14.6616 17.1396 15.4417 17.9197 15.4417 18.8604C15.4417 19.8011 14.6845 20.5813 13.7208 20.5813H8.58126C7.64054 20.5813 6.86042 19.8011 6.86042 18.8604C6.86042 17.9197 7.61759 17.1396 8.58126 17.1396ZM20.5813 27.4187H8.58126C7.64054 27.4187 6.86042 26.6386 6.86042 25.6979C6.86042 24.7572 7.61759 23.9771 8.58126 23.9771H20.5813C21.522 23.9771 22.3021 24.7572 22.3021 25.6979C22.3021 26.6386 21.5449 27.4187 20.5813 27.4187ZM41.1625 27.4187H36.0229C35.0822 27.4187 34.3021 26.6386 34.3021 25.6979C34.3021 24.7572 35.0593 23.9771 36.0229 23.9771H41.1625C42.1033 23.9771 42.8834 24.7572 42.8834 25.6979C42.8834 26.6386 42.1262 27.4187 41.1625 27.4187Z" fill="white"/>
</g>
<defs>
<clipPath id="clip0_361_10">
<rect width="48" height="34.2792" fill="white"/>
</clipPath>
</defs>
</svg>
