<svg width="59" height="68" viewBox="0 0 59 68" fill="none" xmlns="http://www.w3.org/2000/svg">
<path d="M55.1267 31.5199L29.0607 46.2708L2.9729 31.5199V61.0001H55.1267V31.5199Z" fill="white" stroke="#283593" stroke-width="0.75" stroke-linecap="round" stroke-linejoin="round"/>
<path d="M55.1267 31.5199L29.0607 46.2708L2.9729 31.5199L29.0607 15.9904L55.1267 31.5199Z" fill="white" stroke="#283593" stroke-width="0.75" stroke-linecap="round" stroke-linejoin="round"/>
<path d="M46.3439 10.0424H11.7776V36.3647L29.0607 46.2707L46.3439 36.3647V10.0424Z" fill="#E0F7FA" stroke="#283593" stroke-width="0.75" stroke-linecap="round" stroke-linejoin="round"/>
<path d="M28.2995 37.1535C30.3647 37.1535 32.2126 36.8291 33.9518 35.8558L33.2996 34.4499C31.9952 35.0987 30.3647 35.5313 28.5169 35.5313C23.8428 35.5313 20.3644 32.287 20.3644 26.9879C20.3644 20.6074 24.8211 16.4979 30.0386 16.4979C34.9301 16.4979 37.7563 19.7422 37.7563 24.2843C37.7563 27.9612 35.9084 30.1241 34.2779 30.1241C33.1909 30.1241 32.8648 28.9345 33.2996 26.5553L34.3866 20.8237C33.6257 20.4993 32.43 20.1748 31.0169 20.1748C26.5603 20.1748 23.408 23.8517 23.408 27.7449C23.408 30.2322 25.0385 31.7463 26.8864 31.7463C28.7343 31.7463 30.256 30.773 31.343 28.9345H31.4517C31.343 30.8811 32.5387 31.7463 33.8431 31.7463C36.778 31.7463 39.4955 28.9345 39.4955 24.1762C39.4955 18.8771 35.7997 14.9839 30.256 14.9839C23.1906 14.9839 18.6252 20.6074 18.6252 27.2042C18.6252 33.3684 23.0819 37.1535 28.2995 37.1535ZM31.4517 25.6902C31.1256 27.6368 29.3865 30.016 27.5386 30.016C26.1255 30.016 25.4733 29.0427 25.4733 27.6368C25.4733 24.5006 27.756 21.9051 30.5821 21.9051C31.343 21.9051 31.8865 22.0133 32.2126 22.1214L31.4517 25.6902Z" fill="#283593"/>
</svg>
