<svg width="24" height="24" viewBox="0 0 24 24" fill="none" xmlns="http://www.w3.org/2000/svg">
<path fill-rule="evenodd" clip-rule="evenodd" d="M21.7543 4C22.4423 4 23 4.55593 23 5.24388V18.1148C23 18.8016 22.4452 19.3586 21.7543 19.3586H2.24565C1.55769 19.3586 1 18.8027 1 18.1148V5.24388C1 4.55707 1.55477 4 2.24565 4H21.7543ZM11.0249 12.9468L2.57032 6.25359C2.39137 6.11171 2.24573 6.18352 2.24573 6.41371V17.6961C2.24573 17.9278 2.4322 18.1134 2.66239 18.1134H21.3387C21.5683 18.1134 21.7553 17.9266 21.7553 17.6961V6.41371C21.7553 6.18208 21.61 6.11172 21.4308 6.25359L12.9762 12.9468C12.4388 13.3724 11.564 13.3733 11.0252 12.9468H11.0249ZM20.2845 5.24603H3.71627C3.48695 5.24603 3.44902 5.36126 3.62854 5.50343L11.6754 11.8737C11.857 12.0173 12.1462 12.0159 12.3258 11.8737L20.3727 5.50343C20.5539 5.35982 20.5128 5.24603 20.2849 5.24603H20.2845Z" fill="black"/>
</svg>
