<svg width="59" height="68" viewBox="0 0 59 68" fill="none" xmlns="http://www.w3.org/2000/svg">
<g clip-path="url(#clip0_361_14)">
<path d="M49.3301 4.65991H0.310059V63.6499H49.3301V4.65991Z" fill="white"/>
<path d="M0.63 4.96997H49.02V63.33H0.63V4.96997ZM0 63.96H49.65V4.33997H0V63.95V63.96Z" fill="#283593"/>
<path d="M25.3099 24.73H15.6599C15.4899 24.73 15.3499 24.59 15.3499 24.42C15.3499 24.25 15.4899 24.11 15.6599 24.11H25.3099C25.4799 24.11 25.6199 24.25 25.6199 24.42C25.6199 24.59 25.4799 24.73 25.3099 24.73Z" fill="#283593"/>
<path d="M37.3099 24.73H27.6599C27.4899 24.73 27.3499 24.59 27.3499 24.42C27.3499 24.25 27.4899 24.11 27.6599 24.11H37.3099C37.4799 24.11 37.6199 24.25 37.6199 24.42C37.6199 24.59 37.4799 24.73 37.3099 24.73Z" fill="#283593"/>
<path d="M33.8199 27.6599H15.6599C15.4899 27.6599 15.3499 27.5199 15.3499 27.3499C15.3499 27.1799 15.4899 27.0399 15.6599 27.0399H33.8099C33.9799 27.0399 34.1199 27.1799 34.1199 27.3499C34.1199 27.5199 33.9799 27.6599 33.8099 27.6599" fill="#283593"/>
<path d="M34.9599 30.58H15.6599C15.4899 30.58 15.3499 30.44 15.3499 30.27C15.3499 30.1 15.4899 29.96 15.6599 29.96H34.9599C35.1299 29.96 35.2699 30.1 35.2699 30.27C35.2699 30.44 35.1299 30.58 34.9599 30.58Z" fill="#283593"/>
<path d="M9.43995 30.58C7.64995 30.58 6.19995 29.13 6.19995 27.35C6.19995 25.56 7.64995 24.11 9.42995 24.11C11.22 24.11 12.67 25.56 12.67 27.34C12.67 29.13 11.22 30.58 9.42995 30.58M9.42995 24.74C7.98995 24.74 6.81995 25.91 6.81995 27.35C6.81995 28.79 7.98995 29.96 9.42995 29.96C10.87 29.96 12.04 28.79 12.04 27.35C12.04 25.91 10.87 24.74 9.42995 24.74Z" fill="#283593"/>
<path d="M9.15991 28.8999L7.99991 27.7399C7.87991 27.6199 7.87991 27.4199 7.99991 27.2999C8.11991 27.1799 8.31991 27.1799 8.43991 27.2999L9.15991 28.0199L10.6699 26.5099C10.7899 26.3899 10.9899 26.3899 11.1099 26.5099C11.2299 26.6299 11.2299 26.8299 11.1099 26.9499L9.14991 28.9099L9.15991 28.8999Z" fill="#B2EBF2"/>
<path d="M33.2699 38.22H15.6599C15.4899 38.22 15.3499 38.08 15.3499 37.91C15.3499 37.74 15.4899 37.6 15.6599 37.6H33.2699C33.4399 37.6 33.5799 37.74 33.5799 37.91C33.5799 38.08 33.4399 38.22 33.2699 38.22Z" fill="#283593"/>
<path d="M24.5799 41.1399H15.6599C15.4899 41.1399 15.3499 40.9999 15.3499 40.8299C15.3499 40.6599 15.4899 40.5199 15.6599 40.5199H24.5799C24.7499 40.5199 24.8899 40.6599 24.8899 40.8299C24.8899 40.9999 24.7499 41.1399 24.5799 41.1399Z" fill="#283593"/>
<path d="M32.33 41.1399H26.8C26.63 41.1399 26.49 40.9999 26.49 40.8299C26.49 40.6599 26.63 40.5199 26.8 40.5199H32.33C32.5 40.5199 32.64 40.6599 32.64 40.8299C32.64 40.9999 32.5 41.1399 32.33 41.1399Z" fill="#283593"/>
<path d="M34.9599 44.07H15.6599C15.4899 44.07 15.3499 43.9299 15.3499 43.7599C15.3499 43.5899 15.4899 43.45 15.6599 43.45H34.9599C35.1299 43.45 35.2699 43.5899 35.2699 43.7599C35.2699 43.9299 35.1299 44.07 34.9599 44.07Z" fill="#283593"/>
<path d="M9.43995 44.06C7.64995 44.06 6.19995 42.61 6.19995 40.83C6.19995 39.04 7.64995 37.59 9.42995 37.59C11.22 37.59 12.67 39.04 12.67 40.82C12.67 42.61 11.22 44.06 9.42995 44.06M9.42995 38.22C7.98995 38.22 6.81995 39.39 6.81995 40.83C6.81995 42.27 7.98995 43.44 9.42995 43.44C10.87 43.44 12.04 42.27 12.04 40.83C12.04 39.39 10.87 38.22 9.42995 38.22Z" fill="#283593"/>
<path d="M9.15991 42.3899L7.99991 41.2299C7.87991 41.1099 7.87991 40.9099 7.99991 40.7899C8.11991 40.6699 8.31991 40.6699 8.43991 40.7899L9.15991 41.5099L10.6699 39.9999C10.7899 39.8799 10.9899 39.8799 11.1099 39.9999C11.2299 40.1199 11.2299 40.3199 11.1099 40.4399L9.14991 42.3999L9.15991 42.3899Z" fill="#B2EBF2"/>
<path d="M30.1399 51.71H15.6699C15.4999 51.71 15.3599 51.57 15.3599 51.4C15.3599 51.23 15.4999 51.09 15.6699 51.09H30.1399C30.3099 51.09 30.4499 51.23 30.4499 51.4C30.4499 51.57 30.3099 51.71 30.1399 51.71Z" fill="#283593"/>
<path d="M35.8499 51.71H32.4299C32.2599 51.71 32.1199 51.57 32.1199 51.4C32.1199 51.23 32.2599 51.09 32.4299 51.09H35.8499C36.0199 51.09 36.1599 51.23 36.1599 51.4C36.1599 51.57 36.0199 51.71 35.8499 51.71Z" fill="#283593"/>
<path d="M40.0999 54.6299H15.6599C15.4899 54.6299 15.3499 54.4899 15.3499 54.3199C15.3499 54.1499 15.4899 54.0099 15.6599 54.0099H40.0999C40.2699 54.0099 40.4099 54.1499 40.4099 54.3199C40.4099 54.4899 40.2699 54.6299 40.0999 54.6299Z" fill="#283593"/>
<path d="M27.1099 57.5499H15.6599C15.4899 57.5499 15.3499 57.4099 15.3499 57.2399C15.3499 57.0699 15.4899 56.9299 15.6599 56.9299H27.1099C27.2799 56.9299 27.4199 57.0699 27.4199 57.2399C27.4199 57.4099 27.2799 57.5499 27.1099 57.5499Z" fill="#283593"/>
<path d="M36.8701 57.5499H28.8701C28.7001 57.5499 28.5601 57.4099 28.5601 57.2399C28.5601 57.0699 28.7001 56.9299 28.8701 56.9299H36.8701C37.0401 56.9299 37.1801 57.0699 37.1801 57.2399C37.1801 57.4099 37.0401 57.5499 36.8701 57.5499Z" fill="#283593"/>
<path d="M9.43995 57.55C7.64995 57.55 6.19995 56.1 6.19995 54.32C6.19995 52.54 7.64995 51.08 9.42995 51.08C11.22 51.08 12.67 52.53 12.67 54.31C12.67 56.1 11.22 57.55 9.42995 57.55M9.42995 51.71C7.98995 51.71 6.81995 52.88 6.81995 54.32C6.81995 55.76 7.98995 56.93 9.42995 56.93C10.87 56.93 12.04 55.76 12.04 54.32C12.04 52.88 10.87 51.71 9.42995 51.71Z" fill="#283593"/>
<path d="M34.9599 11.37H15.6599C15.4899 11.37 15.3499 11.23 15.3499 11.06C15.3499 10.89 15.4899 10.75 15.6599 10.75H34.9599C35.1299 10.75 35.2699 10.89 35.2699 11.06C35.2699 11.23 35.1299 11.37 34.9599 11.37Z" fill="#283593"/>
<path d="M40.8399 14.2999H15.6599C15.4899 14.2999 15.3499 14.1599 15.3499 13.9899C15.3499 13.8199 15.4899 13.6799 15.6599 13.6799H40.8399C41.0099 13.6799 41.1499 13.8199 41.1499 13.9899C41.1499 14.1599 41.0099 14.2999 40.8399 14.2999Z" fill="#283593"/>
<path d="M34.9599 17.22H15.6599C15.4899 17.22 15.3499 17.08 15.3499 16.91C15.3499 16.74 15.4899 16.6 15.6599 16.6H34.9599C35.1299 16.6 35.2699 16.74 35.2699 16.91C35.2699 17.08 35.1299 17.22 34.9599 17.22Z" fill="#283593"/>
<path d="M9.43995 17.22C7.64995 17.22 6.19995 15.77 6.19995 13.99C6.19995 12.2 7.64995 10.75 9.42995 10.75C11.21 10.75 12.67 12.2 12.67 13.98C12.67 15.77 11.22 17.22 9.42995 17.22M9.42995 11.38C7.98995 11.38 6.81995 12.55 6.81995 13.99C6.81995 15.43 7.98995 16.6 9.42995 16.6C10.87 16.6 12.04 15.43 12.04 13.99C12.04 12.55 10.87 11.38 9.42995 11.38Z" fill="#283593"/>
<path d="M9.15991 15.5399L7.99991 14.3799C7.87991 14.2599 7.87991 14.0599 7.99991 13.9399C8.11991 13.8199 8.31991 13.8199 8.43991 13.9399L9.15991 14.6599L10.6699 13.1499C10.7899 13.0299 10.9899 13.0299 11.1099 13.1499C11.2299 13.2699 11.2299 13.4699 11.1099 13.5899L9.14991 15.5399H9.15991Z" fill="#B2EBF2"/>
<path d="M53.7298 7.27731L36.8198 36.5663L40.5697 38.7313L57.4797 9.44231L53.7298 7.27731Z" fill="#9FA8DA"/>
<path d="M40.61 39.11L36.47 36.72L36.52 36.46L53.62 6.83997L57.91 9.31997L40.82 38.93L40.61 39.11ZM37.25 36.45L40.46 38.3L57.06 9.54997L53.85 7.69997L37.25 36.45Z" fill="#283593"/>
<path d="M57.77 4.6C58.81 5.2 59.16 6.52 58.56 7.56L57.48 9.44L53.73 7.28L54.81 5.4C55.41 4.36 56.73 4.01 57.77 4.61" fill="#E0F7FA"/>
<path d="M57.6001 9.85994L53.3101 7.37994L54.5501 5.22994C55.2101 4.02994 56.7201 3.59994 57.9201 4.25994C59.1201 4.91994 59.5501 6.42994 58.8901 7.62994C58.8701 7.65994 58.8601 7.67994 58.8401 7.70994L57.6001 9.85994ZM54.1601 7.14994L57.3701 8.99994L58.3001 7.39994C58.8301 6.51994 58.5501 5.38994 57.6701 4.85994C56.7901 4.32994 55.6601 4.60994 55.1301 5.48994C55.1201 5.50994 55.1101 5.52994 55.1001 5.54994L54.1701 7.14994H54.1601Z" fill="#283593"/>
<path d="M40.57 38.7299L36.82 36.5599L35.48 43.2099L40.57 38.7199V38.7299Z" fill="white"/>
<path d="M34.99 44.0599L36.52 36.4599L36.71 36.1299L41 38.6099L40.82 38.9299L34.99 44.0699V44.0599ZM37.04 37.0499L35.97 42.3599L40.04 38.7799L37.05 37.0499H37.04Z" fill="#283593"/>
<path d="M50.4299 19.1099C50.3799 19.1099 50.3199 19.0999 50.2699 19.0699C50.1199 18.9799 50.0699 18.7899 50.1499 18.6399L52.5599 14.4599C52.6399 14.3099 52.8299 14.2499 52.9899 14.3399C53.1399 14.4199 53.1999 14.6099 53.1099 14.7699C53.1099 14.7699 53.1099 14.7699 53.1099 14.7799L50.6999 18.9599C50.6399 19.0599 50.5399 19.1199 50.4299 19.1199" fill="white"/>
<path d="M53.3698 14.0199C53.3198 14.0199 53.2598 14.0099 53.2098 13.9799C53.0598 13.8899 53.0098 13.6999 53.0898 13.5499L54.4899 11.1299C54.5799 10.9799 54.7698 10.9299 54.9198 11.0099C55.0698 11.0999 55.1199 11.2899 55.0399 11.4399L53.6398 13.8599C53.5798 13.9599 53.4798 14.0199 53.3698 14.0199Z" fill="white"/>
<path d="M35.97 42.37L36.23 41.08L36.96 41.49L35.97 42.36V42.37Z" fill="#E0F7FA"/>
</g>
<defs>
<clipPath id="clip0_361_14">
<rect width="59" height="68" fill="white"/>
</clipPath>
</defs>
</svg>
