<svg width="48" height="35" viewBox="0 0 48 35" fill="none" xmlns="http://www.w3.org/2000/svg">
<g clip-path="url(#clip0_361_2)">
<path d="M48 5.12593C48 2.29128 45.685 -0.0236816 42.8504 -0.0236816H5.14961C2.31496 -5.95935e-05 0 2.3149 0 5.14955V8.55112H48V5.12593Z" fill="#333333"/>
<path d="M0 11.9527V29.1259C0 31.9606 2.31496 34.2519 5.14961 34.2755H42.8504C45.685 34.2755 47.9764 31.9606 48 29.1259V11.9527H0ZM8.5748 17.1259H13.7008C14.6457 17.1495 15.378 17.9527 15.3543 18.8976C15.3307 19.7952 14.5984 20.5039 13.7008 20.5511H8.5748C7.62992 20.5275 6.89764 19.7244 6.92126 18.7795C6.94488 17.8818 7.67717 17.1732 8.5748 17.1259ZM20.5748 27.4015H8.5748C7.62992 27.3779 6.89764 26.5747 6.92126 25.6299C6.94488 24.7322 7.67717 24.0236 8.5748 23.9763H20.5748C21.5197 24.0236 22.252 24.8031 22.2283 25.748C22.2047 26.6456 21.4724 27.3543 20.5748 27.4015ZM41.1496 27.4015H36C35.0551 27.3779 34.3228 26.5747 34.3465 25.6299C34.3701 24.7322 35.1024 24.0236 36 23.9763H41.1496C42.0945 23.9999 42.8268 24.8031 42.8032 25.748C42.7795 26.6456 42.0472 27.3543 41.1496 27.4015Z" fill="#333333"/>
</g>
<defs>
<clipPath id="clip0_361_2">
<rect width="48" height="34.2756" fill="white"/>
</clipPath>
</defs>
</svg>
