<svg width="69" height="63" viewBox="0 0 69 63" fill="none" xmlns="http://www.w3.org/2000/svg">
<g clip-path="url(#clip0_361_315)">
<path d="M18.0701 49.42H18.7101V62.26H16.2801V50.98C16.5001 50.15 17.2101 49.53 18.0701 49.42ZM31.3601 52.26C30.2401 52.22 29.1801 52.8 28.6101 53.77V49.42H28.3301C27.4501 49.38 26.6101 49.84 26.1801 50.61V57.9C26.1801 60.79 27.6901 62.25 30.7201 62.25C33.7501 62.2 35.2101 60.55 35.2101 57.34C35.2101 53.99 33.9301 52.34 31.3601 52.25V52.26ZM30.6301 60.15C29.2501 60.15 28.5701 59.14 28.6101 57.22C28.7001 55.34 29.3401 54.42 30.6701 54.42C32.0001 54.42 32.6401 55.34 32.7301 57.22C32.7301 59.19 32.0001 60.15 30.6201 60.15H30.6301ZM36.6401 57.22C36.7301 54.1 38.2401 52.36 41.5001 52.36H42.2301V54.88H41.0801C39.7001 54.88 39.1101 55.75 39.1101 57.17V62.21H36.6401V57.21V57.22ZM46.0801 59.74C46.5601 60.13 47.1601 60.33 47.7801 60.29C48.2601 60.3 48.7201 60.16 49.1101 59.88C49.4201 59.68 49.6601 59.39 49.8001 59.06H52.0901C51.8301 60.05 51.2301 60.91 50.3901 61.49C49.5701 62.01 48.6101 62.26 47.6401 62.22C46.9501 62.22 46.2701 62.1 45.6201 61.85C45.0501 61.62 44.5401 61.28 44.1101 60.84C43.6901 60.38 43.3701 59.86 43.1501 59.28C42.9201 58.63 42.8101 57.95 42.8301 57.26C42.8301 56.59 42.9601 55.92 43.2001 55.29C43.6301 54.11 44.5201 53.17 45.6801 52.68C46.3001 52.41 46.9701 52.29 47.6501 52.31C48.3801 52.29 49.1001 52.45 49.7601 52.77C50.3401 53.07 50.8401 53.49 51.2301 54.01C51.6101 54.55 51.8901 55.16 52.0501 55.8C52.2301 56.49 52.2901 57.2 52.2301 57.91H45.4001C45.4201 58.58 45.6601 59.23 46.0901 59.74H46.0801ZM49.0101 54.79C48.6201 54.44 48.1101 54.26 47.5901 54.29C47.2301 54.29 46.8701 54.36 46.5401 54.52C46.2901 54.64 46.0701 54.81 45.9001 55.02C45.7401 55.21 45.6201 55.43 45.5301 55.66C45.4701 55.87 45.4201 56.08 45.3901 56.3H49.6101C49.6101 55.74 49.3901 55.2 49.0101 54.79ZM21.3201 49.43H23.7501V51.63H21.3201V49.43ZM21.3201 52.73H23.7501V62.22H21.3201V52.73ZM65.6501 44.34C64.8301 45.25 63.4201 45.32 62.5101 44.5C62.4501 44.45 62.4001 44.4 62.3501 44.34C61.9201 43.71 61.7301 42.95 61.8001 42.19C61.7401 41.45 61.9301 40.7 62.3501 40.08C63.1701 39.17 64.5801 39.1 65.4901 39.92C65.5501 39.97 65.6001 40.02 65.6501 40.08C66.0701 40.7 66.2701 41.44 66.2001 42.19C66.2501 42.95 66.0601 43.7 65.6501 44.34ZM67.5801 38.66C66.7001 37.62 65.3701 37.05 64.0001 37.15C62.6301 37.02 61.2901 37.59 60.4201 38.66C59.6501 39.66 59.2301 40.88 59.2301 42.14C59.1901 43.41 59.6201 44.64 60.4201 45.62C61.3101 46.65 62.6401 47.19 64.0001 47.09C65.3601 47.21 66.6901 46.66 67.5801 45.62C68.3501 44.62 68.7701 43.4 68.7701 42.14C68.8201 40.87 68.3901 39.63 67.5801 38.66ZM55.6601 44.34C55.2901 44.83 54.7101 45.1 54.1001 45.07C53.5001 45.11 52.9301 44.83 52.5901 44.34C52.2501 43.68 52.0901 42.93 52.1301 42.19C52.0901 41.5 52.2501 40.82 52.5901 40.22C52.9101 39.67 53.5101 39.35 54.1501 39.4C54.6001 39.4 55.0301 39.54 55.3901 39.81C56.0301 40.5 56.3501 41.44 56.2601 42.38C56.2201 43.08 56.0101 43.75 55.6601 44.35V44.34ZM58.5001 34.35C58.5001 34.35 56.0201 34.07 56.0201 36.05V38.66C55.7401 38.23 55.3601 37.87 54.9201 37.61C54.4601 37.36 53.9301 37.25 53.4101 37.29C52.2601 37.26 51.1501 37.77 50.4301 38.67C49.6301 39.79 49.2401 41.15 49.3301 42.52C49.2401 43.74 49.6401 44.94 50.4301 45.87C51.3701 46.74 52.6301 47.19 53.9101 47.11C58.4501 47.11 58.3601 43.26 58.3601 43.26L58.5001 34.36V34.35ZM46.3001 43.2C46.3501 43.84 46.1001 44.47 45.6101 44.9C45.1701 45.18 44.6601 45.34 44.1401 45.36C43.5701 45.42 43.0601 45.01 42.9901 44.44C42.9901 44.36 42.9901 44.29 42.9901 44.21C42.9701 43.78 43.1801 43.38 43.5401 43.16C43.8801 42.97 44.2501 42.86 44.6401 42.84L45.1901 42.7C45.4201 42.64 45.6501 42.59 45.8801 42.56C46.0201 42.51 46.2001 42.42 46.3401 42.38L46.2901 43.2H46.3001ZM47.5401 37.84C46.6801 37.42 45.7401 37.22 44.7901 37.24C43.5401 37.11 42.3101 37.57 41.4401 38.48C41.0401 39.06 40.8001 39.74 40.7501 40.45H43.0901C43.1401 40.16 43.2501 39.88 43.4101 39.63C43.7501 39.33 44.2001 39.18 44.6501 39.22C45.0601 39.19 45.4601 39.26 45.8401 39.4C46.1301 39.57 46.2901 39.89 46.2501 40.22C46.2501 40.55 46.0201 40.83 45.7001 40.91C45.3801 40.99 45.0601 41.05 44.7401 41.09L43.9201 41.14C43.1701 41.21 42.4401 41.42 41.7601 41.74C40.3901 42.65 40.0201 44.5 40.9301 45.87C41.0301 46.02 41.1401 46.15 41.2601 46.28C41.8601 46.75 42.6001 47.01 43.3701 47.01C48.7301 47.19 48.6901 44.17 48.6901 43.57V40.09C48.8101 39.18 48.3601 38.28 47.5401 37.84ZM35.3901 39.35C36.2001 39.23 36.9601 39.8 37.0801 40.61C37.0901 40.69 37.1001 40.78 37.0901 40.86H39.7001C39.7001 39.78 39.1901 38.76 38.3201 38.11C37.4101 37.55 36.3501 37.29 35.2901 37.38C34.0001 37.29 32.7501 37.78 31.8501 38.71C30.9801 39.75 30.5401 41.07 30.6101 42.42C30.5201 43.66 30.9201 44.9 31.7101 45.86C33.7301 47.72 36.8701 47.62 38.7701 45.63C39.2201 44.99 39.5001 44.25 39.5901 43.47H36.9801C36.9501 43.91 36.7901 44.32 36.5201 44.66C36.1601 44.99 35.6801 45.16 35.1901 45.12C34.4101 45.18 33.7001 44.68 33.4901 43.93C33.3101 43.4 33.2201 42.84 33.2101 42.28C33.1601 41.7 33.2501 41.12 33.4901 40.58C33.7901 39.81 34.5401 39.31 35.3701 39.34M29.9201 37.28C24.4701 37.28 24.8301 42.09 24.8301 42.09V46.95H27.3101V42.41C27.2501 41.85 27.3501 41.28 27.5901 40.76C28.0101 40.08 28.7701 39.71 29.5601 39.8H29.8401C29.9801 39.8 30.1201 39.8 30.2501 39.85V37.38H30.0701C30.0368 37.32 29.9901 37.29 29.9301 37.29M17.6401 39.81C18.0401 39.44 18.5601 39.24 19.1101 39.26C19.6401 39.24 20.1501 39.4 20.5801 39.72C21.0001 40.09 21.2301 40.63 21.1801 41.19H16.9601C17.0501 40.68 17.2901 40.2 17.6401 39.82V39.81ZM20.9401 44.34C20.8801 44.49 20.7701 44.6 20.6201 44.66C20.2101 44.92 19.7301 45.03 19.2401 44.98C18.7701 45.03 18.3001 44.91 17.9101 44.66C17.2601 44.24 16.8901 43.5 16.9501 42.73H23.7401C23.7401 41.91 23.7401 41.26 23.6901 40.9C23.6001 40.21 23.3501 39.55 22.9601 38.97C22.5701 38.38 22.0301 37.91 21.4001 37.59C20.7001 37.3 19.9501 37.16 19.2001 37.18C17.9601 37.11 16.7501 37.6 15.9001 38.51C14.9901 39.53 14.5101 40.86 14.5701 42.22C14.4201 43.62 14.9701 45.01 16.0401 45.93C16.9801 46.68 18.1401 47.1 19.3401 47.12C20.6501 47.21 21.9301 46.7 22.8201 45.74C23.2401 45.35 23.5301 44.83 23.6401 44.27L20.9301 44.32L20.9401 44.34ZM13.5101 46.91H11.2201V41.27C11.3301 40.44 10.7401 39.68 9.92011 39.58C9.81011 39.57 9.69011 39.56 9.57011 39.58C8.67011 39.54 7.91011 40.25 7.87011 41.15C7.87011 41.19 7.87011 41.24 7.87011 41.28V46.92H5.58011V41.28C5.69011 40.45 5.10011 39.69 4.28011 39.59C4.16011 39.57 4.05011 39.57 3.93011 39.59C3.05011 39.56 2.31011 40.25 2.28011 41.14C2.28011 41.19 2.28011 41.24 2.28011 41.29V46.93H0.0101143V41.34C-0.149886 39.22 1.44011 37.38 3.56011 37.22C3.68011 37.22 3.80011 37.21 3.91011 37.22C5.02011 37.18 6.07011 37.68 6.75011 38.55C7.44011 37.69 8.49011 37.2 9.59011 37.22C12.0601 37.22 13.4901 38.92 13.4901 41.35L13.5301 46.94L13.5101 46.91ZM56.3101 14.26C56.3101 6.42 46.5501 0 34.4901 0C22.4301 0 12.6701 6.42 12.6701 14.26V15.08C12.6701 23.42 21.2001 30.16 34.4901 30.16C47.7801 30.16 56.3101 23.42 56.3101 15.08V14.26Z" fill="#2D3277"/>
<path d="M55.5299 14.26C55.5299 21.64 46.1299 27.65 34.5799 27.65C23.0299 27.65 13.6299 21.64 13.6299 14.26C13.6299 6.88 23.0299 0.880005 34.5799 0.880005C46.1299 0.880005 55.5299 6.89001 55.5299 14.27V14.26Z" fill="#FFE600"/>
<path d="M27.61 10.04C27.61 10.04 27.38 10.27 27.52 10.45C28.2 10.97 29.09 11.12 29.9 10.86C30.7 10.54 31.43 10.07 32.05 9.48003C32.78 8.82003 33.61 8.29003 34.52 7.92003C35.1 7.72003 35.72 7.70003 36.31 7.87003C36.9 8.11003 37.46 8.44003 37.96 8.83003C39.38 9.88003 45.16 14.93 46.17 15.8C49.14 14.51 52.22 13.52 55.38 12.82C54.83 10.07 53.28 7.62003 51.03 5.94003C47.73 7.32003 43.65 8.05003 39.66 6.12003C38.3 5.52003 36.84 5.19003 35.35 5.16003C32.19 5.25003 30.86 6.58003 29.39 8.05003L27.6 10.02L27.61 10.04Z" fill="white"/>
<path d="M45.9499 16.3701C45.9499 16.3701 39.1599 10.4601 37.6499 9.31009C37.1099 8.85009 36.4599 8.54009 35.7699 8.39009C35.4599 8.35009 35.1499 8.39009 34.8499 8.48009C33.9499 8.82009 33.1099 9.32009 32.3799 9.95009C31.6999 10.6001 30.8899 11.1001 29.9999 11.4201C29.1099 11.6201 28.1699 11.4701 27.3899 11.0101C27.1899 10.8901 27.0299 10.7201 26.9299 10.5101C26.8299 10.2001 26.9199 9.86009 27.1599 9.64009L28.9899 7.62009L29.6299 6.98009C29.0299 7.07009 28.4799 7.21009 27.9299 7.35009C27.2899 7.56009 26.6299 7.68009 25.9599 7.72009C25.2799 7.66009 24.6099 7.55009 23.9399 7.40009C22.0999 6.92009 20.2999 6.28009 18.5799 5.47009C16.1099 7.14009 14.3599 9.68009 13.6699 12.5701C14.0399 12.6601 14.6799 12.8501 14.9099 12.8901C20.8699 14.2201 22.6999 15.5901 23.0699 15.8701C23.4399 15.4501 23.9799 15.2201 24.5399 15.2301C25.1699 15.2301 25.7699 15.5401 26.1399 16.0501C26.5399 15.7201 27.0399 15.5501 27.5599 15.5501C27.8599 15.5501 28.1499 15.6001 28.4299 15.6901C28.9699 15.8601 29.4099 16.2601 29.6199 16.7901C29.8799 16.6801 30.1599 16.6101 30.4399 16.6101C30.7899 16.6301 31.1299 16.7001 31.4499 16.8401C32.3499 17.2601 32.8399 18.2501 32.6399 19.2201H32.8699C34.1799 19.2201 35.2399 20.2601 35.2499 21.5701C35.2499 21.5801 35.2499 21.5901 35.2499 21.6001C35.2499 21.9801 35.1599 22.3601 34.9699 22.7001C35.5899 23.0701 36.3099 23.2601 37.0299 23.2501C37.6699 23.1601 37.8999 22.9701 37.9899 22.8401C38.0399 22.7501 38.1299 22.6601 38.0399 22.5601L36.3399 20.6801C36.3399 20.6801 36.0599 20.4001 36.1599 20.3101C36.2599 20.2201 36.4399 20.3601 36.5699 20.4501C37.4399 21.1801 38.4499 22.2401 38.4499 22.2401C38.5699 22.3701 38.7299 22.4501 38.9099 22.4701C39.3799 22.5301 39.8499 22.4201 40.2399 22.1501C40.3299 22.0601 40.4699 21.9701 40.5199 21.8701C40.7499 21.5301 40.7299 21.0801 40.4699 20.7701L38.4999 18.5701C38.4999 18.5701 38.2199 18.2901 38.3199 18.2001C38.4199 18.1101 38.5999 18.2501 38.7299 18.3401C39.3699 18.8401 40.2399 19.7601 41.0699 20.5901C41.6399 20.9901 42.3999 20.9801 42.9499 20.5401C43.3999 20.3001 43.6699 19.8101 43.6399 19.3001C43.5899 18.9901 43.4399 18.7001 43.2299 18.4801L40.5699 15.7801C40.5699 15.7801 40.2899 15.5501 40.3899 15.4101C40.4799 15.3201 40.6699 15.4601 40.7999 15.5501C41.6699 16.2801 43.9599 18.3901 43.9599 18.3901C44.5299 18.7401 45.2499 18.7201 45.7899 18.3401C46.1499 18.1501 46.3799 17.7801 46.3899 17.3801C46.3899 16.9901 46.2299 16.6201 45.9399 16.3601L45.9499 16.3701Z" fill="white"/>
<path d="M32.9698 19.81C32.6498 19.84 32.3498 19.92 32.0498 20.04C31.9998 20.04 32.0498 19.86 32.0998 19.76C32.1498 19.66 32.6998 18.02 31.3698 17.42C30.7698 17.07 30.0098 17.19 29.5398 17.7C29.4898 17.75 29.4498 17.75 29.4498 17.7C29.4498 17.06 29.0098 16.5 28.3998 16.32C27.5398 16.05 26.5998 16.38 26.1098 17.14C26.0098 16.33 25.2798 15.76 24.4698 15.86C23.6598 15.96 23.0898 16.69 23.1898 17.5C23.2798 18.24 23.8998 18.79 24.6498 18.79C25.0298 18.8 25.3998 18.65 25.6598 18.38V18.43C25.4498 19.36 25.9598 20.3 26.8498 20.63C27.3298 20.82 27.8698 20.73 28.2698 20.4C28.4098 20.31 28.4098 20.35 28.4098 20.45C28.3598 20.77 28.4098 21.5 29.4598 21.92C29.9698 22.18 30.5898 22.07 30.9698 21.64C31.1098 21.5 31.1498 21.55 31.1498 21.73C31.1998 22.74 32.0598 23.52 33.0698 23.47C34.0798 23.42 34.8598 22.56 34.8098 21.55C34.7598 20.57 33.9598 19.81 32.9798 19.81H32.9698Z" fill="white"/>
<path d="M46.22 15.68C44.16 13.89 39.39 9.72004 38.06 8.76004C37.57 8.32004 36.99 8.00004 36.36 7.80004C35.75 7.60004 35.08 7.62004 34.48 7.85004C33.58 8.23004 32.74 8.76004 32 9.41004L31.95 9.46004C31.34 10.03 30.62 10.48 29.84 10.79C29.58 10.84 29.32 10.87 29.06 10.88C28.53 10.92 28.01 10.76 27.59 10.42C27.54 10.37 27.59 10.28 27.68 10.19L29.51 8.22004C30.93 6.80004 32.26 5.47004 35.38 5.38004H35.52C36.93 5.44004 38.31 5.77004 39.6 6.34004C41.33 7.19004 43.22 7.65004 45.15 7.67004C47.27 7.63004 49.35 7.13004 51.25 6.20004C51.02 6.02004 50.75 5.79004 50.52 5.60004C48.84 6.37004 47.01 6.78004 45.16 6.79004C43.36 6.78004 41.59 6.35004 39.98 5.55004C38.58 4.90004 37.07 4.55004 35.53 4.50004H35.35C33.51 4.45004 31.71 5.09004 30.31 6.29004C29.45 6.33004 28.61 6.49004 27.79 6.75004C27.21 6.94004 26.61 7.05004 26 7.07004H25.31C23.13 6.71004 20.99 6.11004 18.94 5.28004C18.66 5.46004 18.44 5.65004 18.16 5.83004C20.39 6.75004 22.71 7.43004 25.08 7.85004C25.36 7.85004 25.68 7.90004 26 7.90004C26.69 7.87004 27.36 7.74004 28.02 7.53004C28.43 7.44004 28.84 7.30004 29.26 7.21004L28.89 7.58004L27.06 9.60004C26.78 9.86004 26.67 10.25 26.78 10.61C26.91 10.83 27.08 11.01 27.28 11.16C27.89 11.49 28.56 11.66 29.25 11.66C29.51 11.66 29.77 11.62 30.03 11.57C30.94 11.24 31.77 10.73 32.46 10.06C33.17 9.45004 33.98 8.95004 34.84 8.59004C35.07 8.54004 35.3 8.51004 35.53 8.50004H35.71C36.39 8.60004 37.03 8.91004 37.54 9.37004C39.05 10.52 45.79 16.38 45.84 16.43C46.11 16.7 46.26 17.06 46.25 17.44C46.21 17.8 46.01 18.12 45.7 18.31C45.44 18.48 45.14 18.58 44.83 18.59C44.55 18.59 44.28 18.51 44.05 18.36C44.05 18.36 41.71 16.25 40.89 15.52C40.79 15.39 40.64 15.31 40.48 15.29C40.41 15.29 40.34 15.33 40.3 15.38C40.16 15.56 40.3 15.79 40.48 15.93L43.18 18.63C43.37 18.83 43.5 19.09 43.55 19.36C43.56 19.82 43.32 20.25 42.91 20.46C42.63 20.67 42.29 20.78 41.95 20.78C41.67 20.78 41.41 20.7 41.17 20.55L40.76 20.18C40.14 19.53 39.48 18.92 38.79 18.35C38.65 18.26 38.51 18.12 38.38 18.12C38.31 18.12 38.23 18.15 38.2 18.21C38.15 18.26 38.11 18.39 38.25 18.62C38.28 18.68 38.33 18.73 38.39 18.76L40.36 20.96C40.36 20.96 40.77 21.46 40.41 21.88L40.32 21.97L40.14 22.15C39.86 22.36 39.52 22.47 39.18 22.47H38.9C38.75 22.45 38.61 22.38 38.49 22.29C37.88 21.66 37.24 21.06 36.56 20.5C36.46 20.4 36.33 20.33 36.19 20.32C36.12 20.33 36.06 20.36 36.01 20.41C35.87 20.59 36.1 20.87 36.19 20.96L37.89 22.79C37.89 22.79 37.87 22.88 37.84 22.93C37.79 23.02 37.56 23.21 36.97 23.3H36.74C36.16 23.26 35.6 23.09 35.09 22.8C35.24 22.47 35.31 22.11 35.32 21.75C35.32 20.39 34.23 19.28 32.87 19.28H32.76C32.91 18.3 32.39 17.34 31.48 16.94C31.15 16.8 30.79 16.72 30.43 16.71C30.16 16.71 29.9 16.76 29.65 16.85C29.39 16.35 28.95 15.97 28.41 15.8C28.11 15.71 27.8 15.66 27.49 15.66C26.99 15.66 26.51 15.81 26.11 16.12C25.37 15.21 24.03 15.08 23.12 15.82C23.07 15.86 23.03 15.9 22.99 15.94C22.49 15.53 20.42 14.24 14.88 12.96C14.46 12.87 14.05 12.75 13.64 12.59C13.59 12.87 13.55 13.19 13.5 13.51C13.5 13.51 14.51 13.74 14.74 13.79C20.38 15.03 22.26 16.36 22.58 16.59C22.49 16.86 22.44 17.13 22.44 17.41C22.44 18.57 23.37 19.51 24.53 19.52H24.55C24.69 19.52 24.83 19.52 24.96 19.47C25.12 20.32 25.74 21.03 26.56 21.3C26.8 21.39 27.04 21.43 27.29 21.44C28.07 21.23 28.88 21.69 29.09 22.48C29.1 22.53 29.11 22.58 29.12 22.64C29.38 22.77 29.66 22.83 29.94 22.82C30.16 22.82 30.38 22.78 30.58 22.68C30.96 23.61 31.86 24.23 32.87 24.24C33.55 24.24 34.2 23.96 34.66 23.46C35.3 23.84 36.02 24.06 36.77 24.1H37.09C37.64 24.09 38.16 23.84 38.51 23.41C38.56 23.36 38.56 23.32 38.6 23.27C38.82 23.33 39.06 23.36 39.29 23.36C39.79 23.36 40.28 23.18 40.67 22.86C41.1 22.6 41.39 22.16 41.45 21.67C41.6 21.71 41.75 21.72 41.91 21.72C42.42 21.72 42.92 21.56 43.33 21.26C43.96 20.89 44.35 20.21 44.34 19.47C44.49 19.51 44.64 19.52 44.8 19.52C45.27 19.52 45.74 19.37 46.13 19.11C46.65 18.79 46.99 18.25 47.05 17.64C47.07 17.22 46.98 16.81 46.77 16.45C49.59 15.29 52.51 14.38 55.48 13.7C55.48 13.39 55.43 13.08 55.34 12.78C52.21 13.44 49.15 14.42 46.22 15.71V15.68ZM32.97 23.34C32.05 23.34 31.3 22.61 31.27 21.69C31.27 21.6 31.27 21.41 31.09 21.41C31 21.41 30.95 21.46 30.86 21.5C30.65 21.73 30.35 21.86 30.04 21.87C29.85 21.87 29.66 21.82 29.49 21.73C28.53 21.32 28.48 20.68 28.53 20.4C28.53 20.31 28.53 20.26 28.48 20.22L28.43 20.17H28.39C28.39 20.17 28.3 20.17 28.21 20.26C27.97 20.43 27.68 20.53 27.39 20.54C27.23 20.54 27.08 20.5 26.93 20.45C26.08 20.15 25.61 19.26 25.83 18.39C25.83 18.3 25.83 18.25 25.78 18.21L25.69 18.12L25.6 18.21C25.35 18.44 25.02 18.57 24.68 18.58C23.95 18.58 23.35 17.98 23.35 17.25C23.35 16.52 23.95 15.92 24.68 15.92C25.34 15.93 25.9 16.41 26.01 17.07L26.06 17.44L26.24 17.12C26.57 16.59 27.17 16.27 27.8 16.29C28 16.3 28.2 16.33 28.4 16.38C28.95 16.54 29.32 17.05 29.32 17.62C29.32 17.8 29.46 17.8 29.46 17.8C29.51 17.8 29.6 17.75 29.6 17.71C29.85 17.45 30.2 17.3 30.56 17.3C30.82 17.3 31.07 17.36 31.29 17.48C32.53 18.03 31.98 19.59 31.98 19.63C31.89 19.91 31.84 20 31.98 20.09H32.07C32.15 20.09 32.23 20.08 32.3 20.04C32.51 19.97 32.72 19.92 32.94 19.9C33.87 19.91 34.63 20.67 34.64 21.6C34.69 22.5 34 23.28 33.1 23.33C33.06 23.33 33.02 23.33 32.98 23.33L32.97 23.34Z" fill="#2D3277"/>
</g>
<defs>
<clipPath id="clip0_361_315">
<rect width="68.78" height="62.26" fill="white"/>
</clipPath>
</defs>
</svg>
