<svg width="316" height="86" viewBox="0 0 316 86" fill="none" xmlns="http://www.w3.org/2000/svg">
<path d="M170.085 42.5213L127.564 0V85.0427L170.085 42.5213Z" fill="white"/>
<path d="M85.0428 42.5213L127.564 0H42.5215L85.0428 42.5213Z" fill="white"/>
<path d="M0 42.5213L42.5213 85.0427V0L0 42.5213Z" fill="white"/>
<path d="M85.0428 42.5214L42.5215 85.0427H127.564L85.0428 42.5214Z" fill="white"/>
<path d="M207.407 45.1113H191.986V60.3318H184.256V24.7107H191.986V39.2912H207.407V24.7107H215.137V60.3218H207.407V45.1013V45.1113Z" fill="white"/>
<path d="M233.657 60.9719C225.977 60.9719 219.667 57.9218 219.517 49.3915H227.247C227.347 53.1817 229.567 55.4517 233.797 55.4517C236.947 55.4517 240.497 53.8717 240.497 50.3316C240.497 47.5715 238.087 46.6915 234.097 45.5514L231.537 44.8114C225.927 43.1914 220.357 41.0213 220.357 34.6111C220.357 26.6808 227.747 24.0208 234.497 24.0208C241.247 24.0208 247.397 26.4308 247.447 34.3111H239.717C239.417 31.061 237.547 29.1909 233.907 29.1909C231.047 29.1909 228.197 30.721 228.197 33.8711C228.197 36.4811 230.557 37.2712 235.587 38.8412L238.547 39.7812C244.657 41.7013 248.498 43.8214 248.498 49.7316C248.498 57.8618 240.667 60.9619 233.667 60.9619L233.657 60.9719Z" fill="white"/>
<path d="M252.838 24.7107H265.198C269.088 24.7107 270.668 24.8107 272.188 25.1507C276.519 26.1307 279.779 28.9408 279.779 33.721C279.779 38.5011 276.869 40.6612 272.689 41.7512C277.519 42.6413 281.059 45.1013 281.059 50.3715C281.059 58.4518 273.079 60.3218 266.828 60.3218H252.838V24.7107ZM265.248 39.5412C268.648 39.5412 272.098 38.8511 272.098 34.711C272.098 31.0209 268.848 30.0309 265.748 30.0309H260.328V39.5412H265.258H265.248ZM265.988 55.0116C269.588 55.0116 273.129 54.1716 273.129 49.8415C273.129 45.5113 270.078 44.6213 266.428 44.6213H260.318V55.0116H265.978H265.988Z" fill="white"/>
<path d="M301.219 60.9719C289.739 60.9719 284.569 53.6317 284.569 42.7913C284.569 31.951 290.279 24.0208 301.609 24.0208C308.7 24.0208 315.6 27.1709 315.8 35.2511H307.82C307.43 31.701 305.06 29.8309 301.609 29.8309C294.659 29.8309 292.549 37.3212 292.549 43.0313C292.549 48.7415 294.669 55.2917 301.369 55.2917C304.869 55.2917 307.43 53.4217 307.97 49.8216H316C315.11 57.9018 308.61 60.9519 301.219 60.9519V60.9719Z" fill="white"/>
</svg>
