<svg width="316" height="86" viewBox="0 0 316 86" fill="none" xmlns="http://www.w3.org/2000/svg">
<path d="M170.085 42.5414L127.564 0.0200195V85.0627L170.085 42.5414Z" fill="#E52713"/>
<path d="M85.0428 42.5414L127.564 0.0200195H42.5215L85.0428 42.5414Z" fill="#E52713"/>
<path d="M0 42.5414L42.5213 85.0627V0.0200195L0 42.5414Z" fill="#E52713"/>
<path d="M85.0428 42.5413L42.5215 85.0626H127.564L85.0428 42.5413Z" fill="#E52713"/>
<path d="M207.407 45.1314H191.986V60.3518H184.256V24.7407H191.986V39.3212H207.407V24.7407H215.137V60.3518H207.407V45.1314Z" fill="white"/>
<path d="M233.657 60.9919C225.977 60.9919 219.667 57.9418 219.517 49.4116H227.247C227.347 53.2017 229.567 55.4718 233.797 55.4718C236.947 55.4718 240.497 53.8917 240.497 50.3516C240.497 47.5915 238.087 46.7115 234.097 45.5714L231.537 44.8314C225.927 43.2114 220.357 41.0413 220.357 34.6311C220.357 26.7009 227.747 24.0408 234.497 24.0408C241.247 24.0408 247.397 26.4508 247.447 34.3311H239.717C239.417 31.081 237.547 29.2109 233.907 29.2109C231.047 29.2109 228.197 30.741 228.197 33.8911C228.197 36.5012 230.557 37.2912 235.587 38.8612L238.547 39.8013C244.657 41.7213 248.498 43.8414 248.498 49.7516C248.498 57.8818 240.667 60.9819 233.667 60.9819L233.657 60.9919Z" fill="white"/>
<path d="M252.838 24.7407H265.198C269.088 24.7407 270.668 24.8407 272.188 25.1807C276.519 26.1608 279.779 28.9709 279.779 33.751C279.779 38.5312 276.869 40.6912 272.689 41.7813C277.519 42.6713 281.059 45.1314 281.059 50.4015C281.059 58.4818 273.079 60.3518 266.828 60.3518H252.838V24.7407ZM265.248 39.5712C268.648 39.5712 272.098 38.8812 272.098 34.741C272.098 31.0509 268.848 30.0609 265.748 30.0609H260.328V39.5712H265.258H265.248ZM265.988 55.0417C269.588 55.0417 273.129 54.2016 273.129 49.8715C273.129 45.5414 270.078 44.6514 266.428 44.6514H260.318V55.0417H265.978H265.988Z" fill="white"/>
<path d="M301.219 60.9919C289.739 60.9919 284.569 53.6517 284.569 42.8114C284.569 31.971 290.279 24.0408 301.609 24.0408C308.7 24.0408 315.6 27.1909 315.8 35.2711H307.82C307.43 31.721 305.06 29.851 301.609 29.851C294.659 29.851 292.549 37.3412 292.549 43.0514C292.549 48.7615 294.669 55.3118 301.369 55.3118C304.869 55.3118 307.43 53.4417 307.97 49.8416H316C315.11 57.9218 308.61 60.9719 301.219 60.9719V60.9919Z" fill="white"/>
<path d="M42.5215 0L85.0428 42.5213L42.5215 85.0427V0Z" fill="white"/>
<path d="M85.0425 42.5414L127.564 0.0200195V85.0627L85.0425 42.5414Z" fill="white"/>
</svg>
