<svg width="70" height="65" viewBox="0 0 70 65" fill="none" xmlns="http://www.w3.org/2000/svg">
<g clip-path="url(#clip0_361_323)">
<path d="M56.51 14.32C56.51 6.43 46.71 0 34.61 0C22.51 0 12.71 6.43 12.71 14.32V15.16C12.71 23.53 21.28 30.31 34.61 30.31C47.94 30.31 56.51 23.53 56.51 15.16C56.51 14.87 56.51 14.7 56.51 14.32Z" fill="#2B3375"/>
<path d="M34.6101 27.79C46.2412 27.79 55.67 21.7593 55.67 14.32C55.67 6.8807 46.2412 0.849976 34.6101 0.849976C22.9789 0.849976 13.55 6.8807 13.55 14.32C13.55 21.7593 22.9789 27.79 34.6101 27.79Z" fill="#1F9CD8"/>
<path d="M27.62 10.06C27.62 10.06 27.4 10.3 27.54 10.47C28.22 11 29.12 11.16 29.94 10.9C30.75 10.58 31.48 10.11 32.12 9.52003C32.85 8.85003 33.69 8.32003 34.61 7.94003C35.19 7.73003 35.83 7.71003 36.42 7.89003C37.02 8.11003 37.58 8.44003 38.07 8.85003C39.51 9.93003 45.3 14.99 46.31 15.86C49.29 14.57 52.39 13.57 55.57 12.88C55.01 10.11 53.44 7.65003 51.17 5.96003C47.83 7.36003 43.75 8.09003 39.77 6.14003C38.41 5.53003 36.95 5.19003 35.46 5.16003C32.29 5.23003 30.92 6.60003 29.47 8.05003L27.63 10.03L27.62 10.06Z" fill="white"/>
<path d="M46.06 16.43C45.99 16.37 39.25 10.47 37.72 9.32005C37.19 8.85005 36.53 8.53005 35.83 8.42005C35.53 8.40005 35.22 8.42005 34.93 8.51005C34.03 8.85005 33.1899 9.35005 32.4599 9.98005C31.7699 10.63 30.9499 11.14 30.0499 11.47C29.1499 11.66 28.21 11.51 27.4 11.07C27.21 10.95 27.06 10.79 26.96 10.59C26.85 10.28 26.94 9.93005 27.18 9.71005L29.04 7.70005C29.26 7.48005 29.47 7.27005 29.7 7.06005C29.12 7.15005 28.56 7.27005 28 7.44005C27.36 7.65005 26.69 7.78005 26.02 7.81005C25.34 7.74005 24.67 7.64005 24 7.49005C22.15 7.01005 20.35 6.36005 18.63 5.55005C16.15 7.23005 14.39 9.78005 13.7 12.7C14.08 12.8 14.69 12.98 14.95 13.04C20.94 14.37 22.8 15.74 23.14 16.03C23.87 15.21 25.12 15.14 25.94 15.87C26.06 15.97 26.16 16.09 26.25 16.22C26.65 15.89 27.16 15.72 27.68 15.72C27.97 15.72 28.26 15.77 28.54 15.87C29.08 16.04 29.52 16.44 29.74 16.96C30 16.84 30.29 16.78 30.57 16.78C30.91 16.78 31.26 16.86 31.57 17C32.47 17.42 32.96 18.4 32.75 19.37C32.83 19.37 32.91 19.36 32.99 19.36C34.3 19.36 35.36 20.42 35.36 21.73C35.36 22.12 35.26 22.51 35.08 22.85C35.7 23.23 36.4199 23.42 37.1399 23.4C37.5099 23.4 37.8599 23.25 38.0999 22.98C38.1599 22.9 38.22 22.8 38.16 22.73L36.47 20.85C36.47 20.85 36.1899 20.59 36.2799 20.49C36.3699 20.39 36.5499 20.54 36.6699 20.64C37.5299 21.36 38.58 22.44 38.58 22.44C38.6 22.45 38.67 22.59 39.06 22.66C39.53 22.74 40.0099 22.63 40.3899 22.35C40.4999 22.26 40.6 22.16 40.68 22.05C40.68 22.05 40.67 22.06 40.66 22.06C40.9 21.72 40.88 21.26 40.61 20.95L38.6399 18.73C38.6399 18.73 38.36 18.47 38.45 18.37C38.54 18.27 38.72 18.42 38.84 18.52C39.46 19.04 40.3499 19.93 41.1899 20.76C41.7699 21.15 42.53 21.12 43.08 20.69C43.53 20.44 43.7999 19.96 43.7799 19.45C43.7399 19.14 43.59 18.85 43.36 18.63L40.66 15.92C40.66 15.92 40.3699 15.68 40.4799 15.55C40.5599 15.45 40.7499 15.6 40.8699 15.7C41.7299 16.42 44.0499 18.55 44.0499 18.55C44.6099 18.91 45.33 18.9 45.88 18.51C46.23 18.31 46.4499 17.95 46.4799 17.54C46.4999 17.13 46.3299 16.73 46.0299 16.44L46.06 16.43Z" fill="white"/>
<path d="M32.9901 19.8701C32.6701 19.9101 32.3601 19.9801 32.0601 20.0801C32.0301 20.0601 32.0901 19.8901 32.1201 19.7901C32.1501 19.6901 32.7101 18.0401 31.3701 17.4601C30.7501 17.1301 29.9901 17.2401 29.5001 17.7401C29.4401 17.8001 29.4201 17.7901 29.4101 17.7201C29.3901 17.0901 28.9801 16.5301 28.3701 16.3401C27.5101 16.0801 26.5801 16.4101 26.0801 17.1501C25.9701 16.3501 25.2401 15.7801 24.4401 15.8901C23.6401 16.0001 23.0701 16.7301 23.1801 17.5301C23.2901 18.3301 24.0201 18.9001 24.8201 18.7901C25.1301 18.7501 25.4201 18.6101 25.6401 18.3901C25.6401 18.3901 25.6501 18.4101 25.6401 18.4401C25.4301 19.3801 25.9501 20.3301 26.8501 20.6701C27.3301 20.8501 27.8701 20.7701 28.2701 20.4501C28.3901 20.3701 28.4101 20.4001 28.3901 20.5101C28.3201 21.1901 28.7601 21.8201 29.4201 21.9901C29.9401 22.2401 30.5601 22.1301 30.9601 21.7101C31.0901 21.5901 31.1301 21.6101 31.1301 21.7901C31.1801 22.8101 32.0401 23.6001 33.0601 23.5501C34.0801 23.5001 34.8701 22.6401 34.8201 21.6201C34.7801 20.6301 33.9601 19.8601 32.9801 19.8601L32.9901 19.8701Z" fill="white"/>
<path d="M46.3201 15.73C44.2401 13.92 39.4401 9.74003 38.1401 8.77003C37.6401 8.35003 37.0601 8.01003 36.4501 7.78003C36.1801 7.69003 35.9001 7.65003 35.6201 7.65003C35.2601 7.65003 34.9001 7.71003 34.5601 7.83003C33.6501 8.21003 32.8101 8.74003 32.0701 9.41003L32.0301 9.44003C31.4101 10.02 30.6901 10.48 29.9101 10.79C29.6501 10.85 29.3901 10.88 29.1201 10.88C28.5801 10.92 28.0501 10.75 27.6401 10.4C27.6001 10.35 27.6301 10.28 27.7101 10.17H27.7201L29.5501 8.19003C30.9801 6.76003 32.3301 5.41003 35.4501 5.34003H35.6001C37.0101 5.40003 38.4001 5.73003 39.6901 6.31003C41.4201 7.18003 43.3301 7.63003 45.2701 7.65003C47.3901 7.61003 49.4801 7.11003 51.3901 6.18003C51.1501 5.98003 50.9001 5.78003 50.6501 5.59003C48.9601 6.36003 47.1301 6.78003 45.2701 6.81003C43.4601 6.80003 41.6701 6.37003 40.0501 5.55003C38.6501 4.91003 37.1401 4.55003 35.6001 4.50003H35.4201C33.5701 4.47003 31.7601 5.11003 30.3401 6.30003C29.4801 6.34003 28.6301 6.50003 27.8101 6.76003C27.2301 6.95003 26.6301 7.07003 26.0301 7.10003C25.8001 7.10003 25.3901 7.08003 25.3501 7.08003C23.1601 6.69003 21.0101 6.10003 18.9301 5.30003C18.6701 5.49003 18.4201 5.68003 18.1701 5.87003C20.4001 6.80003 22.7401 7.48003 25.1201 7.88003C25.4101 7.90003 25.7101 7.93003 26.0201 7.93003C26.7101 7.90003 27.3801 7.77003 28.0301 7.56003C28.4201 7.45003 28.8501 7.33003 29.3001 7.25003C29.1801 7.37003 29.0601 7.49003 28.9401 7.61003L27.0801 9.62003C26.7901 9.88003 26.6901 10.28 26.8301 10.65C26.9401 10.87 27.1101 11.06 27.3201 11.19C27.9201 11.53 28.6001 11.7 29.2901 11.69C29.5501 11.69 29.8201 11.66 30.0801 11.61C31.0001 11.28 31.8301 10.76 32.5401 10.09C33.2601 9.47003 34.0701 8.98003 34.9601 8.64003C35.1801 8.58003 35.4101 8.55003 35.6301 8.55003C35.6901 8.55003 35.7501 8.55003 35.8001 8.56003C36.4801 8.67003 37.1101 8.97003 37.6301 9.43003C39.1501 10.58 45.9001 16.48 45.9601 16.53C46.2301 16.79 46.3801 17.15 46.3601 17.52C46.3301 17.88 46.1301 18.2 45.8201 18.38C45.5601 18.56 45.2501 18.65 44.9301 18.66C44.6501 18.66 44.3801 18.58 44.1501 18.43C44.1301 18.41 41.8101 16.29 40.9601 15.58C40.8501 15.47 40.7101 15.39 40.5601 15.37C40.4901 15.37 40.4301 15.4 40.3801 15.45C40.2501 15.62 40.4001 15.84 40.5701 15.99L43.2701 18.7C43.4701 18.9 43.6001 19.15 43.6401 19.43C43.6501 19.89 43.4101 20.33 43.0001 20.55C42.7201 20.75 42.3901 20.86 42.0401 20.87C41.7701 20.87 41.5001 20.79 41.2701 20.64L40.8801 20.26C40.1701 19.56 39.4401 18.84 38.9101 18.4C38.8001 18.29 38.6601 18.22 38.5101 18.19C38.4501 18.19 38.3801 18.22 38.3401 18.26C38.2801 18.33 38.2401 18.45 38.3901 18.65C38.4301 18.7 38.4801 18.75 38.5301 18.8L40.5001 21.01C40.7301 21.28 40.7501 21.67 40.5401 21.95L40.4701 22.04C40.4101 22.1 40.3501 22.16 40.2901 22.22C40.0101 22.42 39.6701 22.53 39.3301 22.53C39.2401 22.53 39.1501 22.53 39.0601 22.51C38.9201 22.5 38.7801 22.44 38.6701 22.35L38.6501 22.33C38.5401 22.22 37.5501 21.21 36.7301 20.52C36.6301 20.41 36.4901 20.34 36.3501 20.32C36.2801 20.32 36.2201 20.35 36.1701 20.4C36.0101 20.58 36.2501 20.84 36.3601 20.94L38.0401 22.79C38.0401 22.79 38.0001 22.87 37.9801 22.9C37.9201 22.98 37.7201 23.19 37.1101 23.26C37.0401 23.26 36.9601 23.27 36.8901 23.27C36.3101 23.23 35.7501 23.07 35.2501 22.78C35.8401 21.53 35.3001 20.03 34.0501 19.44C33.7201 19.28 33.3501 19.2 32.9801 19.2H32.8901C33.0401 18.22 32.5201 17.26 31.6201 16.85C31.2901 16.7 30.9301 16.62 30.5701 16.62C30.3101 16.62 30.0501 16.67 29.8001 16.76C29.5401 16.26 29.1001 15.89 28.5701 15.72C28.2801 15.62 27.9801 15.56 27.6701 15.56C27.1701 15.56 26.6801 15.71 26.2701 16.01C25.5401 15.1 24.2101 14.95 23.3001 15.67C23.2401 15.72 23.1801 15.77 23.1201 15.83C22.6001 15.43 20.5201 14.11 14.9701 12.85C14.7001 12.79 14.0801 12.61 13.7101 12.5C13.6501 12.8 13.6001 13.11 13.5701 13.41C13.5701 13.41 14.5901 13.66 14.7901 13.7C20.4601 14.96 22.3401 16.27 22.6501 16.52C22.2001 17.6 22.7101 18.85 23.8001 19.3C24.0601 19.41 24.3401 19.46 24.6201 19.46C24.7501 19.46 24.8801 19.45 25.0101 19.43C25.1801 20.29 25.7901 20.99 26.6101 21.28C26.8501 21.38 27.1101 21.42 27.3701 21.43C27.5301 21.43 27.7001 21.41 27.8501 21.37C28.2501 22.21 29.0801 22.75 30.0001 22.78C30.2201 22.78 30.4401 22.74 30.6501 22.66C31.1701 23.94 32.6301 24.55 33.9101 24.03C34.2301 23.9 34.5201 23.7 34.7601 23.45C35.4101 23.83 36.1301 24.04 36.8801 24.08C36.9901 24.08 37.1001 24.08 37.2001 24.06C37.7601 24.04 38.2801 23.79 38.6401 23.36C38.6701 23.31 38.7001 23.27 38.7301 23.22C38.9501 23.29 39.1801 23.32 39.4101 23.33C39.9101 23.33 40.3901 23.15 40.7801 22.84C41.1901 22.57 41.4801 22.15 41.5901 21.66V21.64C41.7401 21.67 41.8901 21.69 42.0501 21.69C42.5501 21.69 43.0401 21.53 43.4601 21.24C44.1001 20.87 44.4901 20.17 44.4701 19.43C44.6201 19.46 44.7801 19.48 44.9301 19.48C45.4001 19.48 45.8601 19.33 46.2501 19.07C46.7801 18.75 47.1201 18.19 47.1701 17.58C47.2001 17.16 47.1001 16.74 46.8801 16.37C49.7101 15.21 52.6401 14.3 55.6301 13.63C55.6101 13.33 55.5601 13.02 55.5101 12.72C52.3501 13.42 49.2601 14.42 46.3001 15.71L46.3201 15.73ZM32.9901 23.43C32.0701 23.43 31.3101 22.71 31.2801 21.79C31.2801 21.71 31.2801 21.5 31.0901 21.5C31.0101 21.5 30.9301 21.55 30.8801 21.61C30.6601 21.84 30.3601 21.98 30.0401 21.99C29.8501 21.99 29.6601 21.95 29.4901 21.87C28.5101 21.47 28.5001 20.8 28.5401 20.53C28.5601 20.46 28.5401 20.38 28.5101 20.33L28.4501 20.28H28.3901C28.3301 20.28 28.2701 20.31 28.2201 20.35C27.9801 20.53 27.6901 20.64 27.3901 20.65C27.2301 20.65 27.0701 20.62 26.9301 20.56C26.0901 20.24 25.6101 19.36 25.8101 18.48C25.8201 18.42 25.8101 18.35 25.7501 18.31L25.6601 18.23L25.5801 18.31C25.0501 18.82 24.2001 18.8 23.6901 18.27C23.1801 17.74 23.2001 16.89 23.7301 16.38C24.2601 15.87 25.1101 15.89 25.6201 16.42C25.8201 16.63 25.9501 16.89 25.9801 17.18L26.0301 17.54L26.2301 17.24C26.5801 16.72 27.1601 16.41 27.7901 16.39C27.9901 16.39 28.1801 16.42 28.3701 16.48C28.9201 16.65 29.3001 17.16 29.3201 17.74C29.3301 17.91 29.4601 17.92 29.4801 17.92C29.5401 17.92 29.6001 17.89 29.6301 17.84C29.8901 17.57 30.2401 17.42 30.6101 17.42C30.8601 17.42 31.1201 17.48 31.3501 17.59C32.6101 18.13 32.0401 19.73 32.0301 19.75C31.9201 20.01 31.9201 20.13 32.0201 20.2L32.0701 20.22H32.1101C32.1901 20.22 32.2801 20.19 32.3501 20.16C32.5601 20.08 32.7901 20.03 33.0201 20.01C33.9701 20.01 34.7401 20.78 34.7401 21.73C34.7401 22.68 33.9701 23.45 33.0201 23.45L32.9901 23.43Z" fill="#2B3375"/>
<path d="M67.8999 38.87C65.9099 36.89 62.6899 36.89 60.6999 38.87C59.1199 40.95 59.1199 43.83 60.6999 45.9C62.6999 47.85 65.8999 47.85 67.8999 45.9C69.4799 43.82 69.4799 40.94 67.8999 38.87ZM65.9399 44.55C65.1599 45.46 63.7899 45.57 62.8799 44.79C62.7899 44.72 62.7099 44.63 62.6399 44.55C61.8699 43.21 61.8699 41.56 62.6399 40.21C63.4199 39.3 64.7999 39.2 65.7099 39.98C65.7899 40.05 65.8699 40.13 65.9399 40.21C66.7099 41.55 66.7099 43.2 65.9399 44.55Z" fill="#2B3375"/>
<path d="M47.6999 38.04C46.8399 37.62 45.8999 37.41 44.9499 37.43C43.6999 37.3 42.4599 37.76 41.5899 38.67C41.1599 39.26 40.9199 39.97 40.8999 40.7H43.2699C43.3099 40.39 43.4299 40.09 43.6199 39.84C43.9499 39.52 44.4099 39.36 44.8699 39.41C45.2799 39.39 45.6899 39.46 46.0599 39.63C46.3399 39.79 46.4999 40.11 46.4699 40.43C46.4699 40.75 46.2499 41.04 45.9399 41.13C45.6199 41.24 45.2899 41.32 44.9599 41.34L44.1199 41.44C43.3599 41.5 42.6299 41.71 41.9499 42.04C41.0599 42.55 40.5299 43.52 40.5999 44.55C40.5499 45.33 40.8599 46.09 41.4399 46.61C42.0399 47.09 42.7899 47.35 43.5599 47.34C48.9199 47.58 48.8599 44.51 48.9099 43.88V40.35C49.0099 39.41 48.5399 38.5 47.7099 38.04H47.6999ZM46.4599 43.39C46.5199 44.04 46.2599 44.67 45.7599 45.09C45.3299 45.39 44.8099 45.56 44.2799 45.56C43.9699 45.56 43.6599 45.47 43.4199 45.28C43.1699 45.05 43.0299 44.71 43.0699 44.37C43.0499 43.94 43.2699 43.53 43.6499 43.33C44.0099 43.16 44.3899 43.05 44.7799 43L45.3399 42.9C45.5599 42.86 45.7799 42.81 45.9999 42.73C46.1699 42.67 46.3299 42.59 46.4799 42.49V43.4L46.4599 43.39Z" fill="#2B3375"/>
<path d="M35.4701 39.53C35.9901 39.49 36.4901 39.7 36.8201 40.1C37.0201 40.38 37.1501 40.71 37.1901 41.05H39.8401C39.8201 39.95 39.3101 38.93 38.4401 38.26C37.5301 37.7 36.4701 37.43 35.4001 37.47C34.1201 37.4 32.8701 37.89 31.9701 38.81C31.0901 39.85 30.6401 41.2 30.7301 42.56C30.6701 43.82 31.0701 45.05 31.8501 46.04C32.7501 47 34.0501 47.49 35.3601 47.38C36.7501 47.47 38.1001 46.87 38.9601 45.77C39.4401 45.16 39.7401 44.43 39.8101 43.66H37.1701C37.1401 44.1 36.9801 44.51 36.7101 44.86C36.3701 45.2 35.9001 45.37 35.4201 45.32C34.6401 45.37 33.9301 44.89 33.6801 44.15C33.4901 43.62 33.4101 43.06 33.4301 42.5C33.4101 41.91 33.5001 41.33 33.6801 40.77C33.9301 40 34.6701 39.49 35.4701 39.54V39.53Z" fill="#2B3375"/>
<path d="M30.0201 37.46C24.5901 37.46 24.9101 42.27 24.9101 42.27V47.16H27.3801V42.58C27.3501 42.01 27.4401 41.44 27.6601 40.91C28.0801 40.23 28.8501 39.85 29.6501 39.95C29.7201 39.95 29.8201 39.95 29.9401 39.96C30.0601 39.97 30.2001 39.98 30.3501 40V37.49C30.2401 37.49 30.1701 37.48 30.1401 37.48C30.1101 37.48 30.0701 37.48 30.0201 37.48V37.46Z" fill="#2B3375"/>
<path d="M20.97 44.6C20.88 44.74 20.76 44.87 20.63 44.97C20.23 45.25 19.74 45.38 19.25 45.34C18.79 45.37 18.33 45.26 17.94 45.02C17.28 44.59 16.9 43.85 16.94 43.06H23.76C23.78 42.44 23.76 41.82 23.68 41.2C23.58 40.51 23.33 39.84 22.93 39.26C22.53 38.65 21.97 38.17 21.31 37.87C20.62 37.57 19.87 37.42 19.11 37.43C17.86 37.38 16.65 37.85 15.76 38.73C14.84 39.75 14.37 41.09 14.46 42.46C14.33 43.86 14.86 45.25 15.89 46.21C16.82 46.97 17.99 47.38 19.19 47.36C20.51 47.44 21.79 46.94 22.71 45.99C23.11 45.6 23.41 45.11 23.56 44.57H20.95L20.97 44.6ZM17.66 40.01C18.05 39.64 18.58 39.44 19.12 39.48C19.65 39.46 20.17 39.64 20.57 39.98C20.98 40.36 21.22 40.9 21.22 41.46H17C17.06 40.92 17.28 40.42 17.65 40.02L17.66 40.01Z" fill="#2B3375"/>
<path d="M13.4799 47.15H11.2299V41.48C11.3199 40.61 10.6999 39.83 9.82989 39.74C9.74989 39.74 9.65989 39.73 9.57989 39.74C8.65989 39.71 7.89989 40.43 7.86989 41.35C7.86989 41.4 7.86989 41.44 7.86989 41.49V47.16H5.61989V41.49C5.71989 40.63 5.10989 39.85 4.24989 39.75C4.15989 39.74 4.06989 39.74 3.97989 39.75C3.06989 39.72 2.29989 40.43 2.26989 41.34C2.26989 41.39 2.26989 41.45 2.26989 41.5V47.17H-0.00011229V41.55C-0.140112 39.42 1.47989 37.58 3.60989 37.44C3.72989 37.44 3.83989 37.44 3.95989 37.44C5.04989 37.41 6.07989 37.9 6.75989 38.75C7.44989 37.91 8.47989 37.43 9.55989 37.44C12.0199 37.44 13.4699 39.14 13.4699 41.55V47.17L13.4799 47.15Z" fill="#2B3375"/>
<path d="M58.7799 34.5001C58.7799 34.5001 56.2999 34.2401 56.2999 36.2301V38.87C56.0399 38.44 55.6699 38.0801 55.2299 37.8301C54.7699 37.5801 54.2499 37.45 53.7199 37.46C52.5699 37.42 51.4799 37.9301 50.7699 38.8401C49.9799 39.9601 49.5899 41.3101 49.6699 42.6801C49.6199 43.9101 50.0199 45.1301 50.7899 46.0901C51.7399 46.9801 53.0099 47.4401 54.3099 47.3601C58.8499 47.3601 58.7999 43.4701 58.7999 43.4701V34.51L58.7799 34.5001ZM55.8199 44.5701C55.4599 45.0801 54.8599 45.3801 54.2399 45.3401C53.6199 45.3801 53.0299 45.0801 52.6899 44.5601C52.3199 43.9101 52.1399 43.17 52.1799 42.42C52.1499 41.71 52.3299 41.0201 52.6799 40.4101C53.0099 39.8701 53.6199 39.56 54.2599 39.6C54.7099 39.6 55.1499 39.7501 55.4999 40.0501C56.1399 40.7301 56.4599 41.6501 56.3699 42.5701C56.3999 43.2801 56.2099 43.9801 55.8299 44.5701H55.8199Z" fill="#2B3375"/>
<path d="M17.95 62.06C17.95 62.39 17.82 62.7 17.58 62.92C17.35 63.15 17.04 63.28 16.71 63.28H15.48V54.7C15.37 53.38 15.93 52.1 16.97 51.28C17.91 50.61 19.05 50.29 20.2 50.37C21.42 50.34 22.59 50.83 23.43 51.71C24.24 52.72 24.65 53.99 24.59 55.28C24.65 56.59 24.27 57.87 23.5 58.93C22.84 59.81 21.8 60.31 20.7 60.29C20.15 60.3 19.6 60.19 19.1 59.97C18.61 59.73 18.21 59.34 17.94 58.86V62.06H17.95ZM22.09 55.38C22.14 54.62 21.95 53.87 21.54 53.23C21.18 52.73 20.59 52.45 19.98 52.48C19.38 52.46 18.8 52.74 18.45 53.23C18.06 53.88 17.89 54.63 17.94 55.38C17.89 56.1 18.08 56.82 18.48 57.42C18.84 57.92 19.43 58.2 20.04 58.17C20.63 58.19 21.19 57.9 21.53 57.42C21.92 56.81 22.12 56.1 22.08 55.38" fill="#1F9CD8"/>
<path d="M40.9601 59.5V58.89C40.5801 59.53 39.9501 59.98 39.2301 60.14C38.5101 60.31 37.7601 60.24 37.0801 59.96C36.3201 59.63 35.6701 59.08 35.2401 58.37C34.6901 57.45 34.4301 56.38 34.4801 55.31C34.4201 54.03 34.7801 52.77 35.4901 51.71C36.2901 50.75 37.5101 50.24 38.7501 50.33C39.8901 50.23 41.0201 50.56 41.9201 51.26C42.9501 52.09 43.4901 53.38 43.3801 54.7V59.75C43.4601 62.08 41.6301 64.02 39.3101 64.1C39.1201 64.1 38.9301 64.1 38.7501 64.08C36.8401 64.14 35.1501 62.86 34.6801 61H37.2801C37.7101 61.7 38.5201 62.06 39.3301 61.91C39.7601 61.8 40.1301 61.56 40.4001 61.21C40.7601 60.71 40.9501 60.11 40.9501 59.49M36.8801 55.37C36.8801 57.02 37.3601 57.93 38.3101 58.11C39.0801 58.34 39.9101 58.08 40.4101 57.45C40.6601 57.08 40.8201 56.66 40.8701 56.22C40.9701 55.67 40.9701 55.11 40.8901 54.56C40.8201 54.03 40.6101 53.53 40.3001 53.09C39.9901 52.66 39.4801 52.42 38.9401 52.45C38.2601 52.38 37.6101 52.73 37.3001 53.34C37.0001 53.98 36.8601 54.68 36.8701 55.38" fill="#1F9CD8"/>
<path d="M32.3599 51.01C31.4999 50.59 30.5599 50.38 29.5999 50.4C28.3499 50.27 27.0999 50.73 26.2399 51.64C25.8099 52.23 25.5699 52.94 25.5499 53.67H27.9299C27.9699 53.36 28.0899 53.06 28.2799 52.81C28.6099 52.49 29.0699 52.33 29.5299 52.38C29.9399 52.36 30.3499 52.43 30.7299 52.6C31.0099 52.76 31.1699 53.08 31.1399 53.4C31.1399 53.72 30.9199 54.01 30.6099 54.1C30.2899 54.21 29.9599 54.29 29.6299 54.32L28.7899 54.42C28.0299 54.48 27.2999 54.69 26.6199 55.02C25.7199 55.53 25.1999 56.5 25.2699 57.53C25.2199 58.31 25.5299 59.07 26.1099 59.6C26.7099 60.08 27.4599 60.34 28.2299 60.33C33.5999 60.57 33.5399 57.5 33.5899 56.86V53.32C33.6899 52.38 33.2199 51.46 32.3899 51.01M31.1399 56.38C31.1999 57.03 30.9399 57.66 30.4399 58.08C30.0099 58.39 29.4899 58.55 28.9599 58.55C28.6499 58.55 28.3399 58.46 28.0999 58.27C27.8399 58.04 27.7099 57.7 27.7399 57.36C27.7199 56.93 27.9399 56.52 28.3199 56.32C28.6799 56.15 29.0599 56.03 29.4499 55.98L30.0099 55.88C30.2299 55.84 30.4499 55.78 30.6699 55.71C30.8399 55.65 30.9999 55.57 31.1499 55.47V56.38H31.1399Z" fill="#1F9CD8"/>
<path d="M52.72 51.7901C50.73 49.8101 47.5 49.8101 45.51 51.7901C43.93 53.8701 43.93 56.7501 45.51 58.8401C47.52 60.7901 50.72 60.7901 52.72 58.8401C54.3 56.7601 54.3 53.8801 52.72 51.7901ZM50.76 57.4801C49.98 58.3901 48.62 58.5101 47.7 57.7301C47.61 57.6501 47.53 57.5701 47.45 57.4801C46.67 56.1401 46.67 54.4801 47.45 53.1401C48.23 52.2301 49.61 52.1201 50.52 52.9101C50.6 52.9801 50.68 53.0601 50.75 53.1401C51.52 54.4901 51.52 56.1401 50.75 57.4801" fill="#1F9CD8"/>
</g>
<defs>
<clipPath id="clip0_361_323">
<rect width="69.08" height="64.1" fill="white"/>
</clipPath>
</defs>
</svg>
